<svg width="51" height="36" viewBox="0 0 51 36" fill="none" xmlns="http://www.w3.org/2000/svg">
<g clip-path="url(#clip0_5560_23481)">
<path d="M29.2933 0H23.814V27.9643H29.2933V0Z" fill="#E0F2F1"/>
<path d="M49.7845 12.4782C47.9273 8.44273 42.1826 9.50141 42.1826 9.50141V18.0425L49.9824 18.0675V19.413H39.6519C39.5332 16.7187 39.2172 14.0412 38.4978 12.4782C36.6406 8.44273 30.8958 9.50141 30.8958 9.50141V18.0425L38.6957 18.0675V19.413H30.8838V27.9791H50.8183C50.8183 27.9791 51.6422 16.5137 49.7845 12.4782Z" fill="#E0F2F1"/>
<path d="M48.6707 35.1756C49.7395 35.1756 50.606 33.8544 50.606 32.2246C50.606 30.5949 49.7395 29.2737 48.6707 29.2737C47.6018 29.2737 46.7354 30.5949 46.7354 32.2246C46.7354 33.8544 47.6018 35.1756 48.6707 35.1756Z" fill="#E0F2F1"/>
<path d="M22.6658 19.413V11.8414H22.6533V9.50226C22.6533 9.50226 16.9085 8.44359 15.0513 12.4791C13.1942 16.5145 14.0175 27.9799 14.0175 27.9799H18.4753V29.3512H13.8354V35.2523H17.5071C20.3555 35.2523 22.6647 31.7311 22.6647 27.3881V19.4138L22.6658 19.413ZM17.7597 21.1427V16.2136H18.7427V21.1427H17.7597Z" fill="#E0F2F1"/>
<path d="M12.6141 26.1501C12.6141 26.1501 12.7071 31.9854 10.582 34.1152C7.76978 36.9345 0 35.7558 0 35.7558V20.204H5.84811V34.4295H6.76658L6.77642 27.5648V0H12.5983L12.6147 26.1501H12.6141Z" fill="#E0F2F1"/>
<path d="M23.7074 35.1497H22.8158C22.7048 35.1497 22.6572 35.0772 22.6572 34.908V34.4653C22.6572 34.2961 22.7048 34.2236 22.8158 34.2236H23.491C23.6386 34.2236 23.6544 34.2152 23.6544 33.9902V29.5812C23.6544 29.412 23.702 29.3395 23.8124 29.3395H24.129C24.2399 29.3395 24.2875 29.412 24.2875 29.5812V34.2961C24.2875 35.0122 24.1027 35.1497 23.7069 35.1497H23.7074Z" fill="#E0F2F1"/>
<path d="M27.7241 34.9091C27.7241 35.0775 27.6766 35.1509 27.5656 35.1509H27.2491C27.1381 35.1509 27.0911 35.0783 27.0911 34.9091V33.1394H25.7298V34.9091C25.7298 35.0775 25.6822 35.1509 25.5718 35.1509H25.2552C25.1442 35.1509 25.0967 35.0783 25.0967 34.9091V30.1942C25.0967 29.4782 25.2815 29.3406 25.6773 29.3406H27.1441C27.5399 29.3406 27.7247 29.4773 27.7247 30.1942V34.9091H27.7241ZM27.0911 32.2132V30.5077C27.0911 30.2743 27.0594 30.2659 26.9276 30.2659H25.8932C25.7615 30.2659 25.7298 30.2743 25.7298 30.5077V32.2132H27.0911Z" fill="#E0F2F1"/>
<path d="M30.6756 35.1497H28.6971C28.5861 35.1497 28.5386 35.0772 28.5386 34.908V29.5812C28.5386 29.412 28.5861 29.3395 28.6971 29.3395H30.6756C31.0715 29.3395 31.2562 29.4762 31.2562 30.1931V34.2961C31.2562 35.0122 31.0715 35.1497 30.6756 35.1497ZM30.6226 33.991V30.5074C30.6226 30.2739 30.5909 30.2656 30.4592 30.2656H29.1717V34.2236H30.4592C30.6068 34.2236 30.6226 34.2152 30.6226 33.9902V33.991Z" fill="#E0F2F1"/>
<path d="M34.6876 34.9091C34.6876 35.0775 34.6401 35.1509 34.5291 35.1509H34.2126C34.1016 35.1509 34.054 35.0783 34.054 34.9091V33.1394H32.6927V34.9091C32.6927 35.0775 32.6452 35.1509 32.5342 35.1509H32.2176C32.1066 35.1509 32.0591 35.0783 32.0591 34.9091V30.1942C32.0591 29.4782 32.2439 29.3406 32.6397 29.3406H34.1065C34.5023 29.3406 34.6871 29.4773 34.6871 30.1942V34.9091H34.6876ZM34.0546 32.2132V30.5077C34.0546 30.2743 34.0228 30.2659 33.8911 30.2659H32.8567C32.725 30.2659 32.6933 30.2743 32.6933 30.5077V32.2132H34.0546Z" fill="#E0F2F1"/>
<path d="M39.1796 34.9166C39.1479 35.0858 39.0899 35.15 38.9735 35.15H38.4246C38.3136 35.15 38.2611 35.0858 38.2398 34.9166L37.6963 30.7894L37.1584 34.9166C37.1371 35.0858 37.0846 35.15 36.9736 35.15H36.4247C36.3088 35.15 36.2509 35.0858 36.2191 34.9166L35.2958 29.574C35.2695 29.4215 35.3061 29.3406 35.4117 29.3406H35.7807C35.8971 29.3406 35.9496 29.4048 35.9759 29.574L36.6882 33.8704L37.2213 29.574C37.2426 29.4048 37.2951 29.3406 37.406 29.3406H37.9653C38.0763 29.3406 38.1288 29.4048 38.1501 29.574L38.6886 33.8704L39.4059 29.574C39.4321 29.4048 39.4852 29.3406 39.6011 29.3406H39.9652C40.0707 29.3406 40.1079 29.4215 40.0811 29.574L39.179 34.9166H39.1796Z" fill="#E0F2F1"/>
<path d="M43.0609 34.9091C43.0609 35.0775 43.0134 35.1509 42.9024 35.1509H40.8446C40.7336 35.1509 40.686 35.0783 40.686 34.9091V29.5824C40.686 29.4132 40.7336 29.3406 40.8446 29.3406H42.9024C43.0134 29.3406 43.0609 29.4132 43.0609 29.5824V30.025C43.0609 30.1942 43.0134 30.2668 42.9024 30.2668H41.3197V31.7798H42.5596C42.6706 31.7798 42.7181 31.8523 42.7181 32.0215V32.4633C42.7181 32.6325 42.6706 32.7051 42.5596 32.7051H41.3197V34.2256H42.9024C43.0134 34.2256 43.0609 34.2981 43.0609 34.4673V34.9099V34.9091Z" fill="#E0F2F1"/>
<path d="M46.0018 34.9091C46.0018 35.0775 45.9542 35.1509 45.8433 35.1509H43.891C43.78 35.1509 43.7324 35.0783 43.7324 34.9091V29.5824C43.7324 29.4132 43.78 29.3406 43.891 29.3406H44.2075C44.3185 29.3406 44.3661 29.4132 44.3661 29.5824V34.2247H45.8433C45.9542 34.2247 46.0018 34.2972 46.0018 34.4665V34.9091Z" fill="#E0F2F1"/>
</g>
<defs>
<clipPath id="clip0_5560_23481">
<rect width="51" height="36" fill="white"/>
</clipPath>
</defs>
</svg>
