<svg width="1280" height="280" viewBox="0 0 1280 280" fill="none" xmlns="http://www.w3.org/2000/svg">
<g clip-path="url(#clip0_5560_23042)">
<rect width="280" height="1311" transform="matrix(0 -1 1 0 -4 280)" fill="#051323"/>
<g filter="url(#filter0_f_5560_23042)">
<path d="M480.617 -1160.75L-693.9 371.963L-344.926 863.311L480.617 -1160.75Z" fill="url(#paint0_linear_5560_23042)"/>
</g>
<g style="mix-blend-mode:plus-lighter" opacity="0.4" filter="url(#filter1_f_5560_23042)">
<path d="M480.617 -1160.75L-693.9 371.963L-344.926 863.311L480.617 -1160.75Z" fill="url(#paint1_linear_5560_23042)"/>
</g>
<g filter="url(#filter2_f_5560_23042)">
<path d="M-9.19043 109.707L831.351 -664.878L394.859 -829.372L-9.19043 109.707Z" fill="url(#paint2_linear_5560_23042)"/>
</g>
<g style="mix-blend-mode:plus-lighter" opacity="0.4" filter="url(#filter3_f_5560_23042)">
<path d="M-9.19043 109.707L831.351 -664.878L394.859 -829.372L-9.19043 109.707Z" fill="url(#paint3_linear_5560_23042)"/>
</g>
<g filter="url(#filter4_f_5560_23042)">
<path d="M275.836 116.826L-564.705 891.411L-128.213 1055.91L275.836 116.826Z" fill="url(#paint4_linear_5560_23042)"/>
</g>
<g style="mix-blend-mode:plus-lighter" opacity="0.4" filter="url(#filter5_f_5560_23042)">
<path d="M275.836 116.826L-564.705 891.411L-128.213 1055.91L275.836 116.826Z" fill="url(#paint5_linear_5560_23042)"/>
</g>
<g filter="url(#filter6_f_5560_23042)">
<path d="M1201.99 -1089.34L-703.18 443.563L-136.982 934.857L1201.99 -1089.34Z" fill="url(#paint6_linear_5560_23042)"/>
</g>
<g style="mix-blend-mode:plus-lighter" opacity="0.4" filter="url(#filter7_f_5560_23042)">
<path d="M1201.99 -1089.34L-703.18 443.563L-136.982 934.857L1201.99 -1089.34Z" fill="url(#paint7_linear_5560_23042)"/>
</g>
<g filter="url(#filter8_f_5560_23042)">
<path d="M415.652 181.366L1779.24 -593.219L1071.13 -757.713L415.652 181.366Z" fill="url(#paint8_linear_5560_23042)"/>
</g>
<g style="mix-blend-mode:plus-lighter" opacity="0.4" filter="url(#filter9_f_5560_23042)">
<path d="M415.652 181.366L1779.24 -593.219L1071.13 -757.713L415.652 181.366Z" fill="url(#paint9_linear_5560_23042)"/>
</g>
<g filter="url(#filter10_f_5560_23042)">
<path d="M878.042 188.482L-485.541 963.067L222.565 1127.56L878.042 188.482Z" fill="url(#paint10_linear_5560_23042)"/>
</g>
<g style="mix-blend-mode:plus-lighter" opacity="0.4" filter="url(#filter11_f_5560_23042)">
<path d="M878.042 188.482L-485.541 963.067L222.565 1127.56L878.042 188.482Z" fill="url(#paint11_linear_5560_23042)"/>
</g>
<path d="M516.976 157.576C514.672 157.576 512.592 157.112 510.736 156.184C508.912 155.256 507.424 154.008 506.272 152.44C505.12 150.84 504.416 149.08 504.16 147.16H509.488C509.872 148.984 510.784 150.392 512.224 151.384C513.664 152.344 515.392 152.824 517.408 152.824C519.36 152.824 520.976 152.424 522.256 151.624C523.536 150.824 524.176 149.688 524.176 148.216C524.176 147 523.744 146.056 522.88 145.384C522.016 144.68 520.688 144.104 518.896 143.656L513.424 142.12C508.016 140.68 505.312 137.608 505.312 132.904C505.312 130.92 505.776 129.176 506.704 127.672C507.664 126.168 509.04 125 510.832 124.168C512.624 123.304 514.736 122.872 517.168 122.872C520.208 122.872 522.816 123.64 524.992 125.176C527.2 126.712 528.576 128.888 529.12 131.704H523.792C523.408 130.392 522.592 129.4 521.344 128.728C520.096 128.024 518.576 127.672 516.784 127.672C514.992 127.672 513.488 128.104 512.272 128.968C511.088 129.832 510.496 131.016 510.496 132.52C510.496 134.792 512.096 136.344 515.296 137.176L519.568 138.184C522.672 138.92 525.072 140.056 526.768 141.592C528.496 143.128 529.36 145.096 529.36 147.496C529.36 149.512 528.864 151.288 527.872 152.824C526.88 154.328 525.44 155.496 523.552 156.328C521.696 157.16 519.504 157.576 516.976 157.576ZM545.596 157.528C543.324 157.528 541.26 157 539.404 155.944C537.58 154.888 536.14 153.432 535.084 151.576C534.06 149.688 533.548 147.592 533.548 145.288C533.548 142.952 534.06 140.856 535.084 139C536.14 137.112 537.58 135.64 539.404 134.584C541.228 133.528 543.292 133 545.596 133C547.868 133 549.916 133.528 551.74 134.584C553.564 135.64 554.988 137.112 556.012 139C557.068 140.856 557.596 142.952 557.596 145.288C557.596 147.592 557.068 149.688 556.012 151.576C554.988 153.432 553.564 154.888 551.74 155.944C549.916 157 547.868 157.528 545.596 157.528ZM545.596 153.112C547.708 153.112 549.436 152.376 550.78 150.904C552.156 149.432 552.844 147.56 552.844 145.288C552.844 142.984 552.156 141.096 550.78 139.624C549.436 138.152 547.708 137.416 545.596 137.416C543.452 137.416 541.692 138.152 540.316 139.624C538.972 141.064 538.3 142.952 538.3 145.288C538.3 147.56 538.972 149.432 540.316 150.904C541.692 152.376 543.452 153.112 545.596 153.112ZM565.176 130.168C565.176 127.32 565.944 125.224 567.48 123.88C569.016 122.504 570.904 121.816 573.144 121.816C574.264 121.816 575.368 121.976 576.456 122.296C577.544 122.616 578.52 123.064 579.384 123.64L578.136 127.528C577.496 127.144 576.792 126.84 576.024 126.616C575.288 126.36 574.568 126.232 573.864 126.232C572.68 126.232 571.72 126.552 570.984 127.192C570.28 127.8 569.928 128.792 569.928 130.168V133.528H578.472V137.752H569.928V157H565.176V137.752H560.616V133.528H565.176V130.168ZM593.254 157.48C591.014 157.48 589.126 156.808 587.59 155.464C586.054 154.088 585.286 151.992 585.286 149.176V137.752H580.726V133.528H585.286V127.96L590.038 126.52V133.528H599.59V137.752H590.038V149.176C590.038 150.552 590.39 151.544 591.094 152.152C591.83 152.76 592.79 153.064 593.974 153.064C594.71 153.064 595.446 152.952 596.182 152.728C596.95 152.504 597.638 152.184 598.246 151.768L599.494 155.704C598.662 156.248 597.686 156.68 596.566 157C595.478 157.32 594.374 157.48 593.254 157.48ZM602.711 133.528H607.751L612.503 151.864L617.927 133.528H623.159L628.535 151.864L633.287 133.528H638.375L631.559 157H625.895L620.567 138.712L615.191 157H609.479L602.711 133.528ZM651.793 157.528C649.617 157.528 647.681 157.016 645.985 155.992C644.321 154.936 643.025 153.48 642.097 151.624C641.169 149.768 640.705 147.656 640.705 145.288C640.705 142.92 641.217 140.808 642.241 138.952C643.297 137.064 644.737 135.608 646.561 134.584C648.417 133.528 650.481 133 652.753 133C654.833 133 656.769 133.464 658.561 134.392C660.385 135.32 661.841 136.712 662.929 138.568C664.049 140.392 664.609 142.616 664.609 145.24V157H659.857V153.208C659.121 154.52 658.017 155.576 656.545 156.376C655.105 157.144 653.521 157.528 651.793 157.528ZM652.705 153.112C654.849 153.112 656.593 152.376 657.937 150.904C659.313 149.432 660.001 147.56 660.001 145.288C660.001 142.984 659.313 141.096 657.937 139.624C656.593 138.152 654.865 137.416 652.753 137.416C650.609 137.416 648.849 138.168 647.473 139.672C646.129 141.144 645.457 143.016 645.457 145.288C645.457 147.56 646.129 149.432 647.473 150.904C648.849 152.376 650.593 153.112 652.705 153.112ZM671.867 133.528H676.571V137.368C677.211 135.96 678.107 134.888 679.259 134.152C680.443 133.384 681.819 133 683.387 133C684.507 133 685.563 133.176 686.555 133.528L686.507 138.136C685.291 137.784 684.171 137.608 683.147 137.608C681.003 137.608 679.371 138.232 678.251 139.48C677.131 140.696 676.571 142.456 676.571 144.76V157H671.867V133.528ZM699.951 157.528C697.679 157.528 695.631 157 693.807 155.944C692.015 154.888 690.607 153.432 689.583 151.576C688.591 149.72 688.095 147.624 688.095 145.288C688.095 142.952 688.607 140.856 689.631 139C690.655 137.112 692.047 135.64 693.807 134.584C695.599 133.528 697.615 133 699.855 133C702.063 133 703.999 133.496 705.663 134.488C707.327 135.448 708.607 136.824 709.503 138.616C710.399 140.408 710.847 142.488 710.847 144.856C710.847 145.528 710.815 146.152 710.751 146.728H692.799C693.055 148.808 693.823 150.456 695.103 151.672C696.383 152.856 697.999 153.448 699.951 153.448C701.487 153.448 702.799 153.064 703.887 152.296C705.007 151.528 705.791 150.44 706.239 149.032H710.607C710.127 151.784 708.895 153.896 706.911 155.368C704.959 156.808 702.639 157.528 699.951 157.528ZM706.335 143.272C706.175 141.384 705.503 139.88 704.319 138.76C703.167 137.608 701.679 137.032 699.855 137.032C698.063 137.032 696.543 137.608 695.295 138.76C694.047 139.912 693.247 141.416 692.895 143.272H706.335ZM729.21 123.4H734.154V157H729.21V123.4ZM742.086 133.528H746.79V136.984C747.398 135.768 748.326 134.808 749.574 134.104C750.854 133.368 752.246 133 753.75 133C756.31 133 758.342 133.816 759.846 135.448C761.35 137.048 762.102 139.24 762.102 142.024V157H757.35V142.84C757.35 141.112 756.886 139.768 755.958 138.808C755.062 137.848 753.798 137.368 752.166 137.368C750.598 137.368 749.302 137.928 748.278 139.048C747.286 140.136 746.79 141.544 746.79 143.272V157H742.086V133.528ZM778.972 157.48C776.732 157.48 774.844 156.808 773.308 155.464C771.772 154.088 771.004 151.992 771.004 149.176V137.752H766.444V133.528H771.004V127.96L775.756 126.52V133.528H785.308V137.752H775.756V149.176C775.756 150.552 776.108 151.544 776.812 152.152C777.548 152.76 778.508 153.064 779.692 153.064C780.428 153.064 781.164 152.952 781.9 152.728C782.668 152.504 783.356 152.184 783.964 151.768L785.212 155.704C784.38 156.248 783.404 156.68 782.284 157C781.196 157.32 780.092 157.48 778.972 157.48ZM800.17 157.528C797.898 157.528 795.85 157 794.026 155.944C792.234 154.888 790.826 153.432 789.802 151.576C788.81 149.72 788.314 147.624 788.314 145.288C788.314 142.952 788.826 140.856 789.85 139C790.874 137.112 792.266 135.64 794.026 134.584C795.818 133.528 797.834 133 800.074 133C802.282 133 804.218 133.496 805.882 134.488C807.546 135.448 808.826 136.824 809.722 138.616C810.618 140.408 811.066 142.488 811.066 144.856C811.066 145.528 811.034 146.152 810.97 146.728H793.018C793.274 148.808 794.042 150.456 795.322 151.672C796.602 152.856 798.218 153.448 800.17 153.448C801.706 153.448 803.018 153.064 804.106 152.296C805.226 151.528 806.01 150.44 806.458 149.032H810.826C810.346 151.784 809.114 153.896 807.13 155.368C805.178 156.808 802.858 157.528 800.17 157.528ZM806.554 143.272C806.394 141.384 805.722 139.88 804.538 138.76C803.386 137.608 801.898 137.032 800.074 137.032C798.282 137.032 796.762 137.608 795.514 138.76C794.266 139.912 793.466 141.416 793.114 143.272H806.554ZM816.757 122.44H821.461V157H816.757V122.44ZM828.757 122.44H833.461V157H828.757V122.44ZM843.157 128.584C842.261 128.584 841.493 128.28 840.853 127.672C840.245 127.064 839.941 126.312 839.941 125.416C839.941 124.52 840.245 123.768 840.853 123.16C841.493 122.552 842.261 122.248 843.157 122.248C844.053 122.248 844.805 122.552 845.413 123.16C846.021 123.768 846.325 124.52 846.325 125.416C846.325 126.312 846.021 127.064 845.413 127.672C844.805 128.28 844.053 128.584 843.157 128.584ZM840.805 157V133.528H845.509V157H840.805ZM851.797 167.128V162.856H863.077C865.445 162.856 867.237 162.2 868.453 160.888C869.701 159.608 870.325 157.72 870.325 155.224V152.248C869.589 153.528 868.485 154.536 867.013 155.272C865.573 156.008 863.989 156.376 862.261 156.376C860.085 156.376 858.149 155.88 856.453 154.888C854.789 153.896 853.493 152.52 852.565 150.76C851.637 148.968 851.173 146.952 851.173 144.712C851.173 142.472 851.685 140.456 852.709 138.664C853.765 136.872 855.205 135.48 857.029 134.488C858.885 133.496 860.949 133 863.221 133C865.301 133 867.237 133.448 869.029 134.344C870.853 135.208 872.309 136.52 873.397 138.28C874.517 140.04 875.077 142.168 875.077 144.664V155.224C875.077 159.064 874.037 162.008 871.957 164.056C869.877 166.104 866.885 167.128 862.981 167.128H851.797ZM863.173 152.2C865.317 152.2 867.061 151.496 868.405 150.088C869.781 148.68 870.469 146.888 870.469 144.712C870.469 142.504 869.781 140.696 868.405 139.288C867.061 137.88 865.333 137.176 863.221 137.176C861.077 137.176 859.317 137.896 857.941 139.336C856.597 140.744 855.925 142.536 855.925 144.712C855.925 146.888 856.597 148.68 857.941 150.088C859.317 151.496 861.061 152.2 863.173 152.2ZM892.608 157.528C890.336 157.528 888.288 157 886.464 155.944C884.672 154.888 883.264 153.432 882.24 151.576C881.248 149.72 880.752 147.624 880.752 145.288C880.752 142.952 881.264 140.856 882.288 139C883.312 137.112 884.704 135.64 886.464 134.584C888.256 133.528 890.272 133 892.512 133C894.72 133 896.656 133.496 898.32 134.488C899.984 135.448 901.264 136.824 902.16 138.616C903.056 140.408 903.504 142.488 903.504 144.856C903.504 145.528 903.472 146.152 903.408 146.728H885.456C885.712 148.808 886.48 150.456 887.76 151.672C889.04 152.856 890.656 153.448 892.608 153.448C894.144 153.448 895.456 153.064 896.544 152.296C897.664 151.528 898.448 150.44 898.896 149.032H903.264C902.784 151.784 901.552 153.896 899.568 155.368C897.616 156.808 895.296 157.528 892.608 157.528ZM898.992 143.272C898.832 141.384 898.16 139.88 896.976 138.76C895.824 137.608 894.336 137.032 892.512 137.032C890.72 137.032 889.2 137.608 887.952 138.76C886.704 139.912 885.904 141.416 885.552 143.272H898.992ZM909.195 133.528H913.899V136.984C914.507 135.768 915.435 134.808 916.683 134.104C917.963 133.368 919.355 133 920.859 133C923.419 133 925.451 133.816 926.955 135.448C928.459 137.048 929.211 139.24 929.211 142.024V157H924.459V142.84C924.459 141.112 923.995 139.768 923.067 138.808C922.171 137.848 920.907 137.368 919.275 137.368C917.707 137.368 916.411 137.928 915.387 139.048C914.395 140.136 913.899 141.544 913.899 143.272V157H909.195V133.528ZM946.514 157.528C944.242 157.528 942.194 157 940.37 155.944C938.578 154.888 937.17 153.432 936.146 151.576C935.154 149.72 934.658 147.624 934.658 145.288C934.658 142.952 935.17 140.856 936.194 139C937.218 137.112 938.626 135.64 940.418 134.584C942.21 133.528 944.242 133 946.514 133C949.234 133 951.554 133.784 953.474 135.352C955.426 136.888 956.658 139.144 957.17 142.12H952.85C952.434 140.648 951.65 139.496 950.498 138.664C949.378 137.832 948.05 137.416 946.514 137.416C944.434 137.416 942.722 138.152 941.378 139.624C940.066 141.096 939.41 142.984 939.41 145.288C939.41 147.592 940.066 149.48 941.378 150.952C942.722 152.392 944.434 153.112 946.514 153.112C948.05 153.112 949.41 152.696 950.594 151.864C951.81 151 952.626 149.88 953.042 148.504H957.314C956.77 151.384 955.49 153.608 953.474 155.176C951.49 156.744 949.17 157.528 946.514 157.528ZM972.998 157.528C970.726 157.528 968.678 157 966.854 155.944C965.062 154.888 963.654 153.432 962.63 151.576C961.638 149.72 961.142 147.624 961.142 145.288C961.142 142.952 961.654 140.856 962.678 139C963.702 137.112 965.094 135.64 966.854 134.584C968.646 133.528 970.662 133 972.902 133C975.11 133 977.046 133.496 978.71 134.488C980.374 135.448 981.654 136.824 982.55 138.616C983.446 140.408 983.894 142.488 983.894 144.856C983.894 145.528 983.862 146.152 983.798 146.728H965.846C966.102 148.808 966.87 150.456 968.15 151.672C969.43 152.856 971.046 153.448 972.998 153.448C974.534 153.448 975.846 153.064 976.934 152.296C978.054 151.528 978.838 150.44 979.286 149.032H983.654C983.174 151.784 981.942 153.896 979.958 155.368C978.006 156.808 975.686 157.528 972.998 157.528ZM979.382 143.272C979.222 141.384 978.55 139.88 977.366 138.76C976.214 137.608 974.726 137.032 972.902 137.032C971.11 137.032 969.59 137.608 968.342 138.76C967.094 139.912 966.294 141.416 965.942 143.272H979.382ZM1012.96 157.576C1010.66 157.576 1008.58 157.112 1006.72 156.184C1004.9 155.256 1003.41 154.008 1002.26 152.44C1001.1 150.84 1000.4 149.08 1000.14 147.16H1005.47C1005.86 148.984 1006.77 150.392 1008.21 151.384C1009.65 152.344 1011.38 152.824 1013.39 152.824C1015.34 152.824 1016.96 152.424 1018.24 151.624C1019.52 150.824 1020.16 149.688 1020.16 148.216C1020.16 147 1019.73 146.056 1018.86 145.384C1018 144.68 1016.67 144.104 1014.88 143.656L1009.41 142.12C1004 140.68 1001.3 137.608 1001.3 132.904C1001.3 130.92 1001.76 129.176 1002.69 127.672C1003.65 126.168 1005.02 125 1006.82 124.168C1008.61 123.304 1010.72 122.872 1013.15 122.872C1016.19 122.872 1018.8 123.64 1020.98 125.176C1023.18 126.712 1024.56 128.888 1025.1 131.704H1019.78C1019.39 130.392 1018.58 129.4 1017.33 128.728C1016.08 128.024 1014.56 127.672 1012.77 127.672C1010.98 127.672 1009.47 128.104 1008.26 128.968C1007.07 129.832 1006.48 131.016 1006.48 132.52C1006.48 134.792 1008.08 136.344 1011.28 137.176L1015.55 138.184C1018.66 138.92 1021.06 140.056 1022.75 141.592C1024.48 143.128 1025.34 145.096 1025.34 147.496C1025.34 149.512 1024.85 151.288 1023.86 152.824C1022.86 154.328 1021.42 155.496 1019.54 156.328C1017.68 157.16 1015.49 157.576 1012.96 157.576ZM1041.58 157.528C1039.31 157.528 1037.24 157 1035.39 155.944C1033.56 154.888 1032.12 153.432 1031.07 151.576C1030.04 149.688 1029.53 147.592 1029.53 145.288C1029.53 142.952 1030.04 140.856 1031.07 139C1032.12 137.112 1033.56 135.64 1035.39 134.584C1037.21 133.528 1039.28 133 1041.58 133C1043.85 133 1045.9 133.528 1047.72 134.584C1049.55 135.64 1050.97 137.112 1052 139C1053.05 140.856 1053.58 142.952 1053.58 145.288C1053.58 147.592 1053.05 149.688 1052 151.576C1050.97 153.432 1049.55 154.888 1047.72 155.944C1045.9 157 1043.85 157.528 1041.58 157.528ZM1041.58 153.112C1043.69 153.112 1045.42 152.376 1046.76 150.904C1048.14 149.432 1048.83 147.56 1048.83 145.288C1048.83 142.984 1048.14 141.096 1046.76 139.624C1045.42 138.152 1043.69 137.416 1041.58 137.416C1039.44 137.416 1037.68 138.152 1036.3 139.624C1034.96 141.064 1034.28 142.952 1034.28 145.288C1034.28 147.56 1034.96 149.432 1036.3 150.904C1037.68 152.376 1039.44 153.112 1041.58 153.112ZM1059.29 122.44H1063.99V157H1059.29V122.44ZM1081.13 157.528C1078.02 157.528 1075.58 156.632 1073.78 154.84C1071.99 153.048 1071.1 150.616 1071.1 147.544V133.528H1075.75V147.544C1075.75 149.304 1076.22 150.648 1077.14 151.576C1078.07 152.472 1079.4 152.92 1081.13 152.92C1082.82 152.92 1084.12 152.472 1085.02 151.576C1085.94 150.648 1086.41 149.304 1086.41 147.544V133.528H1091.11V147.544C1091.11 150.616 1090.2 153.048 1088.38 154.84C1086.58 156.632 1084.17 157.528 1081.13 157.528ZM1108.18 157.48C1105.94 157.48 1104.05 156.808 1102.51 155.464C1100.98 154.088 1100.21 151.992 1100.21 149.176V137.752H1095.65V133.528H1100.21V127.96L1104.96 126.52V133.528H1114.51V137.752H1104.96V149.176C1104.96 150.552 1105.31 151.544 1106.02 152.152C1106.75 152.76 1107.71 153.064 1108.9 153.064C1109.63 153.064 1110.37 152.952 1111.1 152.728C1111.87 152.504 1112.56 152.184 1113.17 151.768L1114.42 155.704C1113.58 156.248 1112.61 156.68 1111.49 157C1110.4 157.32 1109.3 157.48 1108.18 157.48ZM1122.2 128.584C1121.31 128.584 1120.54 128.28 1119.9 127.672C1119.29 127.064 1118.99 126.312 1118.99 125.416C1118.99 124.52 1119.29 123.768 1119.9 123.16C1120.54 122.552 1121.31 122.248 1122.2 122.248C1123.1 122.248 1123.85 122.552 1124.46 123.16C1125.07 123.768 1125.37 124.52 1125.37 125.416C1125.37 126.312 1125.07 127.064 1124.46 127.672C1123.85 128.28 1123.1 128.584 1122.2 128.584ZM1119.85 157V133.528H1124.56V157H1119.85ZM1142.27 157.528C1140 157.528 1137.93 157 1136.08 155.944C1134.25 154.888 1132.81 153.432 1131.76 151.576C1130.73 149.688 1130.22 147.592 1130.22 145.288C1130.22 142.952 1130.73 140.856 1131.76 139C1132.81 137.112 1134.25 135.64 1136.08 134.584C1137.9 133.528 1139.96 133 1142.27 133C1144.54 133 1146.59 133.528 1148.41 134.584C1150.24 135.64 1151.66 137.112 1152.68 139C1153.74 140.856 1154.27 142.952 1154.27 145.288C1154.27 147.592 1153.74 149.688 1152.68 151.576C1151.66 153.432 1150.24 154.888 1148.41 155.944C1146.59 157 1144.54 157.528 1142.27 157.528ZM1142.27 153.112C1144.38 153.112 1146.11 152.376 1147.45 150.904C1148.83 149.432 1149.52 147.56 1149.52 145.288C1149.52 142.984 1148.83 141.096 1147.45 139.624C1146.11 138.152 1144.38 137.416 1142.27 137.416C1140.12 137.416 1138.36 138.152 1136.99 139.624C1135.64 141.064 1134.97 142.952 1134.97 145.288C1134.97 147.56 1135.64 149.432 1136.99 150.904C1138.36 152.376 1140.12 153.112 1142.27 153.112ZM1159.98 133.528H1164.68V136.984C1165.29 135.768 1166.22 134.808 1167.46 134.104C1168.74 133.368 1170.14 133 1171.64 133C1174.2 133 1176.23 133.816 1177.74 135.448C1179.24 137.048 1179.99 139.24 1179.99 142.024V157H1175.24V142.84C1175.24 141.112 1174.78 139.768 1173.85 138.808C1172.95 137.848 1171.69 137.368 1170.06 137.368C1168.49 137.368 1167.19 137.928 1166.17 139.048C1165.18 140.136 1164.68 141.544 1164.68 143.272V157H1159.98V133.528ZM1196.29 157.528C1194.3 157.528 1192.5 157.192 1190.86 156.52C1189.26 155.816 1187.97 154.872 1186.98 153.688C1186.02 152.504 1185.44 151.208 1185.25 149.8H1190.34C1190.62 151.048 1191.33 152.024 1192.45 152.728C1193.6 153.4 1194.99 153.736 1196.62 153.736C1198.19 153.736 1199.47 153.496 1200.46 153.016C1201.46 152.504 1201.95 151.768 1201.95 150.808C1201.95 150.04 1201.62 149.448 1200.94 149.032C1200.3 148.584 1199.26 148.2 1197.82 147.88L1193.26 146.824C1188.59 145.8 1186.26 143.592 1186.26 140.2C1186.26 138.056 1187.17 136.328 1188.99 135.016C1190.85 133.672 1193.34 133 1196.48 133C1199.2 133 1201.49 133.544 1203.34 134.632C1205.23 135.688 1206.38 137.336 1206.8 139.576H1201.66C1201.41 138.712 1200.78 138.04 1199.79 137.56C1198.8 137.048 1197.58 136.792 1196.14 136.792C1194.74 136.792 1193.57 137.08 1192.64 137.656C1191.71 138.2 1191.25 138.952 1191.25 139.912C1191.25 141.384 1192.5 142.376 1194.99 142.888L1198.5 143.608C1204.13 144.728 1206.94 146.952 1206.94 150.28C1206.94 152.488 1205.98 154.248 1204.06 155.56C1202.18 156.872 1199.58 157.528 1196.29 157.528Z" fill="#F4FFFE"/>
</g>
<defs>
<filter id="filter0_f_5560_23042" x="-923.058" y="-1389.91" width="1632.83" height="2482.38" filterUnits="userSpaceOnUse" color-interpolation-filters="sRGB">
<feFlood flood-opacity="0" result="BackgroundImageFix"/>
<feBlend mode="normal" in="SourceGraphic" in2="BackgroundImageFix" result="shape"/>
<feGaussianBlur stdDeviation="114.579" result="effect1_foregroundBlur_5560_23042"/>
</filter>
<filter id="filter1_f_5560_23042" x="-923.058" y="-1389.91" width="1632.83" height="2482.38" filterUnits="userSpaceOnUse" color-interpolation-filters="sRGB">
<feFlood flood-opacity="0" result="BackgroundImageFix"/>
<feBlend mode="normal" in="SourceGraphic" in2="BackgroundImageFix" result="shape"/>
<feGaussianBlur stdDeviation="114.579" result="effect1_foregroundBlur_5560_23042"/>
</filter>
<filter id="filter2_f_5560_23042" x="-238.349" y="-1058.53" width="1298.86" height="1397.4" filterUnits="userSpaceOnUse" color-interpolation-filters="sRGB">
<feFlood flood-opacity="0" result="BackgroundImageFix"/>
<feBlend mode="normal" in="SourceGraphic" in2="BackgroundImageFix" result="shape"/>
<feGaussianBlur stdDeviation="114.579" result="effect1_foregroundBlur_5560_23042"/>
</filter>
<filter id="filter3_f_5560_23042" x="-238.349" y="-1058.53" width="1298.86" height="1397.4" filterUnits="userSpaceOnUse" color-interpolation-filters="sRGB">
<feFlood flood-opacity="0" result="BackgroundImageFix"/>
<feBlend mode="normal" in="SourceGraphic" in2="BackgroundImageFix" result="shape"/>
<feGaussianBlur stdDeviation="114.579" result="effect1_foregroundBlur_5560_23042"/>
</filter>
<filter id="filter4_f_5560_23042" x="-793.863" y="-112.332" width="1298.86" height="1397.4" filterUnits="userSpaceOnUse" color-interpolation-filters="sRGB">
<feFlood flood-opacity="0" result="BackgroundImageFix"/>
<feBlend mode="normal" in="SourceGraphic" in2="BackgroundImageFix" result="shape"/>
<feGaussianBlur stdDeviation="114.579" result="effect1_foregroundBlur_5560_23042"/>
</filter>
<filter id="filter5_f_5560_23042" x="-793.863" y="-112.332" width="1298.86" height="1397.4" filterUnits="userSpaceOnUse" color-interpolation-filters="sRGB">
<feFlood flood-opacity="0" result="BackgroundImageFix"/>
<feBlend mode="normal" in="SourceGraphic" in2="BackgroundImageFix" result="shape"/>
<feGaussianBlur stdDeviation="114.579" result="effect1_foregroundBlur_5560_23042"/>
</filter>
<filter id="filter6_f_5560_23042" x="-932.338" y="-1318.5" width="2363.49" height="2482.52" filterUnits="userSpaceOnUse" color-interpolation-filters="sRGB">
<feFlood flood-opacity="0" result="BackgroundImageFix"/>
<feBlend mode="normal" in="SourceGraphic" in2="BackgroundImageFix" result="shape"/>
<feGaussianBlur stdDeviation="114.579" result="effect1_foregroundBlur_5560_23042"/>
</filter>
<filter id="filter7_f_5560_23042" x="-932.338" y="-1318.5" width="2363.49" height="2482.52" filterUnits="userSpaceOnUse" color-interpolation-filters="sRGB">
<feFlood flood-opacity="0" result="BackgroundImageFix"/>
<feBlend mode="normal" in="SourceGraphic" in2="BackgroundImageFix" result="shape"/>
<feGaussianBlur stdDeviation="114.579" result="effect1_foregroundBlur_5560_23042"/>
</filter>
<filter id="filter8_f_5560_23042" x="186.494" y="-986.871" width="1821.9" height="1397.4" filterUnits="userSpaceOnUse" color-interpolation-filters="sRGB">
<feFlood flood-opacity="0" result="BackgroundImageFix"/>
<feBlend mode="normal" in="SourceGraphic" in2="BackgroundImageFix" result="shape"/>
<feGaussianBlur stdDeviation="114.579" result="effect1_foregroundBlur_5560_23042"/>
</filter>
<filter id="filter9_f_5560_23042" x="186.494" y="-986.871" width="1821.9" height="1397.4" filterUnits="userSpaceOnUse" color-interpolation-filters="sRGB">
<feFlood flood-opacity="0" result="BackgroundImageFix"/>
<feBlend mode="normal" in="SourceGraphic" in2="BackgroundImageFix" result="shape"/>
<feGaussianBlur stdDeviation="114.579" result="effect1_foregroundBlur_5560_23042"/>
</filter>
<filter id="filter10_f_5560_23042" x="-714.699" y="-40.6762" width="1821.9" height="1397.4" filterUnits="userSpaceOnUse" color-interpolation-filters="sRGB">
<feFlood flood-opacity="0" result="BackgroundImageFix"/>
<feBlend mode="normal" in="SourceGraphic" in2="BackgroundImageFix" result="shape"/>
<feGaussianBlur stdDeviation="114.579" result="effect1_foregroundBlur_5560_23042"/>
</filter>
<filter id="filter11_f_5560_23042" x="-714.699" y="-40.6762" width="1821.9" height="1397.4" filterUnits="userSpaceOnUse" color-interpolation-filters="sRGB">
<feFlood flood-opacity="0" result="BackgroundImageFix"/>
<feBlend mode="normal" in="SourceGraphic" in2="BackgroundImageFix" result="shape"/>
<feGaussianBlur stdDeviation="114.579" result="effect1_foregroundBlur_5560_23042"/>
</filter>
<linearGradient id="paint0_linear_5560_23042" x1="167.064" y1="-631.355" x2="-465.801" y2="-781.322" gradientUnits="userSpaceOnUse">
<stop stop-color="#E75D3A"/>
<stop offset="1" stop-opacity="0"/>
</linearGradient>
<linearGradient id="paint1_linear_5560_23042" x1="167.064" y1="-631.355" x2="-465.801" y2="-781.322" gradientUnits="userSpaceOnUse">
<stop stop-color="#E75D3A"/>
<stop offset="1" stop-opacity="0"/>
</linearGradient>
<linearGradient id="paint2_linear_5560_23042" x1="191.49" y1="-147.19" x2="832.483" y2="-99.0982" gradientUnits="userSpaceOnUse">
<stop stop-color="#E75D3A"/>
<stop offset="1" stop-opacity="0"/>
</linearGradient>
<linearGradient id="paint3_linear_5560_23042" x1="191.49" y1="-147.19" x2="832.483" y2="-99.0982" gradientUnits="userSpaceOnUse">
<stop stop-color="#E75D3A"/>
<stop offset="1" stop-opacity="0"/>
</linearGradient>
<linearGradient id="paint4_linear_5560_23042" x1="75.1557" y1="373.723" x2="-565.837" y2="325.631" gradientUnits="userSpaceOnUse">
<stop stop-color="#E75D3A"/>
<stop offset="1" stop-opacity="0"/>
</linearGradient>
<linearGradient id="paint5_linear_5560_23042" x1="75.1557" y1="373.723" x2="-565.837" y2="325.631" gradientUnits="userSpaceOnUse">
<stop stop-color="#E75D3A"/>
<stop offset="1" stop-opacity="0"/>
</linearGradient>
<linearGradient id="paint6_linear_5560_23042" x1="693.396" y1="-559.896" x2="-251.386" y2="-922.943" gradientUnits="userSpaceOnUse">
<stop stop-color="#0B9E8C"/>
<stop offset="1" stop-color="#051323"/>
</linearGradient>
<linearGradient id="paint7_linear_5560_23042" x1="693.396" y1="-559.896" x2="-251.386" y2="-922.943" gradientUnits="userSpaceOnUse">
<stop stop-color="#0B9E8C"/>
<stop offset="1" stop-color="#051323"/>
</linearGradient>
<linearGradient id="paint8_linear_5560_23042" x1="741.21" y1="-75.5308" x2="1771.66" y2="49.8891" gradientUnits="userSpaceOnUse">
<stop stop-color="#C82B32"/>
<stop offset="1" stop-opacity="0"/>
</linearGradient>
<linearGradient id="paint9_linear_5560_23042" x1="741.21" y1="-75.5308" x2="1771.66" y2="49.8891" gradientUnits="userSpaceOnUse">
<stop stop-color="#C82B32"/>
<stop offset="1" stop-opacity="0"/>
</linearGradient>
<linearGradient id="paint10_linear_5560_23042" x1="552.484" y1="445.379" x2="-477.966" y2="319.959" gradientUnits="userSpaceOnUse">
<stop stop-color="#C82B32"/>
<stop offset="1" stop-opacity="0"/>
</linearGradient>
<linearGradient id="paint11_linear_5560_23042" x1="552.484" y1="445.379" x2="-477.966" y2="319.959" gradientUnits="userSpaceOnUse">
<stop stop-color="#C82B32"/>
<stop offset="1" stop-opacity="0"/>
</linearGradient>
<clipPath id="clip0_5560_23042">
<rect width="280" height="1311" fill="white" transform="matrix(0 -1 1 0 -4 280)"/>
</clipPath>
</defs>
</svg>
