<svg width="66" height="69" viewBox="0 0 66 69" fill="none" xmlns="http://www.w3.org/2000/svg">
<path d="M45.9775 35.0444C43.4026 35.0444 41.3942 36.114 39.9522 38.2532C38.4073 40.2798 37.6348 42.8132 37.6348 45.8533C37.6348 49.1185 38.6648 51.8206 40.7247 53.9598C42.7846 55.9864 45.3595 56.9999 48.4494 56.9999C51.9513 56.9999 54.8352 55.5926 57.1011 52.7776C59.3671 49.963 60.5 46.3036 60.5 41.8C60.5 35.4947 58.6461 29.7525 54.9382 24.5732C51.2303 19.394 45.72 15.0029 38.4073 11.3999V15.6221C42.7332 17.7614 46.441 20.5762 49.5309 24.0666C52.6208 27.4443 54.1657 30.8221 54.1657 34.1999C54.1657 36.4517 53.5993 37.5777 52.4663 37.5777C52.2603 37.5777 52.0028 37.5213 51.6938 37.4087C51.3848 37.1836 51.0758 37.0148 50.7668 36.902C49.2219 35.6637 47.6255 35.0444 45.9775 35.0444ZM13.8427 35.0444C11.2678 35.0444 9.25924 36.114 7.81742 38.2532C6.27247 40.2798 5.5 42.8132 5.5 45.8533C5.5 49.1185 6.52987 51.8206 8.5899 53.9598C10.6499 55.9864 13.2247 56.9999 16.3146 56.9999C19.8165 56.9999 22.7004 55.5926 24.9664 52.7776C27.2321 49.963 28.3651 46.3036 28.3651 41.8C28.3651 35.4947 26.5111 29.7525 22.8033 24.5732C19.0954 19.394 13.5853 15.0029 6.27247 11.3999V15.6221C10.5982 17.7614 14.306 20.5762 17.3959 24.0666C20.4858 27.4443 22.0308 30.8221 22.0308 34.1999C22.0308 36.4517 21.4643 37.5777 20.3316 37.5777C20.1256 37.5777 19.8679 37.5213 19.5591 37.4087C19.25 37.1836 18.9409 37.0148 18.6321 36.902C17.0871 35.6637 15.4907 35.0444 13.8427 35.0444Z" fill="url(#paint0_linear_5560_23134)"/>
<defs>
<linearGradient id="paint0_linear_5560_23134" x1="-2.17442" y1="62.8628" x2="71.3253" y2="-4.18646" gradientUnits="userSpaceOnUse">
<stop offset="0.06" stop-color="#0B9E8C"/>
<stop offset="0.505962" stop-color="#80CFC5"/>
<stop offset="0.728942" stop-color="#BAE7E1"/>
<stop offset="0.840433" stop-color="#D7F3F0"/>
<stop offset="0.896178" stop-color="#E6F9F7"/>
<stop offset="0.92405" stop-color="#EDFCFA"/>
<stop offset="0.937987" stop-color="#F1FDFC"/>
<stop offset="0.951923" stop-color="#F4FFFE"/>
</linearGradient>
</defs>
</svg>
