<svg width="89" height="52" viewBox="0 0 89 52" fill="none" xmlns="http://www.w3.org/2000/svg">
<g clip-path="url(#clip0_7362_2917)">
<path d="M51.1196 0H41.5576V40.3929H51.1196V0Z" fill="#051323"/>
<path d="M86.8791 18.0241C83.6382 12.1951 73.613 13.7243 73.613 13.7243V26.0615L87.2245 26.0976V28.041H69.1966C68.9896 24.1494 68.4382 20.2818 67.1826 18.0241C63.9417 12.1951 53.9165 13.7243 53.9165 13.7243V26.0615L67.528 26.0976V28.041H53.8955V40.4143H88.6832C88.6832 40.4143 90.121 23.8531 86.8791 18.0241Z" fill="#051323"/>
<path d="M84.935 50.8092C86.8002 50.8092 88.3123 48.9008 88.3123 46.5467C88.3123 44.1926 86.8002 42.2842 84.935 42.2842C83.0697 42.2842 81.5576 44.1926 81.5576 46.5467C81.5576 48.9008 83.0697 50.8092 84.935 50.8092Z" fill="#051323"/>
<path d="M39.5539 28.041V17.1042H39.532V13.7255C39.532 13.7255 29.5068 12.1963 26.2659 18.0253C23.0249 23.8544 24.4617 40.4155 24.4617 40.4155H32.2411V42.3962H24.144V50.92H30.5515C35.5221 50.92 39.552 45.8339 39.552 39.5606V28.0422L39.5539 28.041ZM30.9923 30.5395V23.4197H32.7076V30.5395H30.9923Z" fill="#051323"/>
<path d="M22.0129 37.7724C22.0129 37.7724 22.1751 46.2011 18.4667 49.2775C13.559 53.3498 0 51.6472 0 51.6472V29.1836H10.2055V49.7315H11.8083L11.8255 39.8158V0H21.9853L22.0139 37.7724H22.0129Z" fill="#051323"/>
<path d="M41.3718 50.7719H39.8157C39.6221 50.7719 39.5391 50.6672 39.5391 50.4227V49.7834C39.5391 49.5389 39.6221 49.4342 39.8157 49.4342H40.994C41.2516 49.4342 41.2793 49.4221 41.2793 49.097V42.7286C41.2793 42.4841 41.3623 42.3794 41.555 42.3794H42.1074C42.3011 42.3794 42.3841 42.4841 42.3841 42.7286V49.5389C42.3841 50.5733 42.0616 50.7719 41.3708 50.7719H41.3718Z" fill="#051323"/>
<path d="M48.3811 50.4245C48.3811 50.6677 48.2981 50.7736 48.1044 50.7736H47.552C47.3583 50.7736 47.2763 50.6689 47.2763 50.4245V47.8682H44.9007V50.4245C44.9007 50.6677 44.8177 50.7736 44.625 50.7736H44.0726C43.8789 50.7736 43.7959 50.6689 43.7959 50.4245V43.6141C43.7959 42.5798 44.1184 42.3811 44.8091 42.3811H47.3688C48.0596 42.3811 48.382 42.5786 48.382 43.6141V50.4245H48.3811ZM47.2763 46.5304V44.0668C47.2763 43.7297 47.221 43.7176 46.991 43.7176H45.186C44.956 43.7176 44.9007 43.7297 44.9007 44.0668V46.5304H47.2763Z" fill="#051323"/>
<path d="M53.5321 50.7719H50.0794C49.8857 50.7719 49.8027 50.6672 49.8027 50.4227V42.7286C49.8027 42.4841 49.8857 42.3794 50.0794 42.3794H53.5321C54.2229 42.3794 54.5453 42.5769 54.5453 43.6124V49.5389C54.5453 50.5733 54.2229 50.7719 53.5321 50.7719ZM53.4396 49.0982V44.0663C53.4396 43.7292 53.3843 43.7171 53.1543 43.7171H50.9075V49.4342H53.1543C53.4119 49.4342 53.4396 49.4221 53.4396 49.097V49.0982Z" fill="#051323"/>
<path d="M60.5329 50.4245C60.5329 50.6677 60.4499 50.7736 60.2562 50.7736H59.7038C59.5101 50.7736 59.4271 50.6689 59.4271 50.4245V47.8682H57.0515V50.4245C57.0515 50.6677 56.9685 50.7736 56.7749 50.7736H56.2225C56.0288 50.7736 55.9458 50.6689 55.9458 50.4245V43.6141C55.9458 42.5798 56.2683 42.3811 56.959 42.3811H59.5187C60.2095 42.3811 60.5319 42.5786 60.5319 43.6141V50.4245H60.5329ZM59.4281 46.5304V44.0668C59.4281 43.7297 59.3728 43.7176 59.1428 43.7176H57.3378C57.1078 43.7176 57.0525 43.7297 57.0525 44.0668V46.5304H59.4281Z" fill="#051323"/>
<path d="M68.3724 50.4353C68.3171 50.6797 68.216 50.7724 68.0127 50.7724H67.0549C66.8612 50.7724 66.7696 50.6797 66.7324 50.4353L65.7841 44.4738L64.8453 50.4353C64.8081 50.6797 64.7165 50.7724 64.5228 50.7724H63.5649C63.3627 50.7724 63.2615 50.6797 63.2062 50.4353L61.5948 42.7182C61.549 42.4979 61.6129 42.3811 61.7971 42.3811H62.4411C62.6443 42.3811 62.7359 42.4738 62.7817 42.7182L64.0248 48.9242L64.955 42.7182C64.9922 42.4738 65.0838 42.3811 65.2775 42.3811H66.2535C66.4471 42.3811 66.5387 42.4738 66.5759 42.7182L67.5157 48.9242L68.7674 42.7182C68.8132 42.4738 68.9057 42.3811 69.108 42.3811H69.7434C69.9275 42.3811 69.9924 42.4979 69.9457 42.7182L68.3715 50.4353H68.3724Z" fill="#051323"/>
<path d="M75.1454 50.4245C75.1454 50.6677 75.0624 50.7736 74.8687 50.7736H71.2776C71.084 50.7736 71.001 50.6689 71.001 50.4245V42.7303C71.001 42.4859 71.084 42.3811 71.2776 42.3811H74.8687C75.0624 42.3811 75.1454 42.4859 75.1454 42.7303V43.3697C75.1454 43.6141 75.0624 43.7189 74.8687 43.7189H72.1067V45.9043H74.2705C74.4642 45.9043 74.5472 46.009 74.5472 46.2535V46.8916C74.5472 47.1361 74.4642 47.2408 74.2705 47.2408H72.1067V49.4371H74.8687C75.0624 49.4371 75.1454 49.5419 75.1454 49.7863V50.4257V50.4245Z" fill="#051323"/>
<path d="M80.2772 50.4245C80.2772 50.6677 80.1942 50.7736 80.0005 50.7736H76.5936C76.3999 50.7736 76.3169 50.6689 76.3169 50.4245V42.7303C76.3169 42.4859 76.3999 42.3811 76.5936 42.3811H77.146C77.3396 42.3811 77.4226 42.4859 77.4226 42.7303V49.4359H80.0005C80.1942 49.4359 80.2772 49.5406 80.2772 49.7851V50.4245Z" fill="#051323"/>
</g>
<defs>
<clipPath id="clip0_7362_2917">
<rect width="89" height="52" fill="white"/>
</clipPath>
</defs>
</svg>
