<svg width="55" height="57" viewBox="0 0 55 57" fill="none" xmlns="http://www.w3.org/2000/svg">
<path d="M38.3144 29.2037C36.1687 29.2037 34.495 30.0951 33.2934 31.8777C32.0059 33.5666 31.3622 35.6777 31.3622 38.2111C31.3622 40.9322 32.2205 43.1839 33.9371 44.9666C35.6537 46.6554 37.7995 47.5 40.3744 47.5C43.2926 47.5 45.6958 46.3272 47.5841 43.9814C49.4724 41.6359 50.4165 38.5864 50.4165 34.8334C50.4165 29.579 48.8716 24.7938 45.7817 20.4778C42.6918 16.1617 38.0999 12.5025 32.0059 9.5V13.0185C35.6108 14.8012 38.7007 17.1469 41.2756 20.0555C43.8505 22.8704 45.1379 25.6852 45.1379 28.5C45.1379 30.3765 44.6659 31.3148 43.7217 31.3148C43.5501 31.3148 43.3355 31.2678 43.078 31.174C42.8205 30.9864 42.563 30.8458 42.3055 30.7517C41.0181 29.7198 39.6877 29.2037 38.3144 29.2037ZM11.5354 29.2037C9.38971 29.2037 7.71587 30.0951 6.51435 31.8777C5.22689 33.5666 4.58317 35.6777 4.58317 38.2111C4.58317 40.9322 5.4414 43.1839 7.15808 44.9666C8.87477 46.6554 11.0205 47.5 13.5954 47.5C16.5136 47.5 18.9169 46.3272 20.8052 43.9814C22.6933 41.6359 23.6375 38.5864 23.6375 34.8334C23.6375 29.579 22.0924 24.7938 19.0026 20.4778C15.9127 16.1617 11.3209 12.5025 5.22689 9.5V13.0185C8.83169 14.8012 11.9215 17.1469 14.4965 20.0555C17.0714 22.8704 18.3588 25.6852 18.3588 28.5C18.3588 30.3765 17.8867 31.3148 16.9428 31.3148C16.7712 31.3148 16.5564 31.2678 16.2991 31.174C16.0415 30.9864 15.7839 30.8458 15.5266 30.7517C14.2391 29.7198 12.9088 29.2037 11.5354 29.2037Z" fill="url(#paint0_linear_7362_2886)"/>
<defs>
<linearGradient id="paint0_linear_7362_2886" x1="-1.81218" y1="52.3857" x2="59.4376" y2="-3.48864" gradientUnits="userSpaceOnUse">
<stop offset="0.06" stop-color="#0B9E8C"/>
<stop offset="0.505962" stop-color="#80CFC5"/>
<stop offset="0.728942" stop-color="#BAE7E1"/>
<stop offset="0.840433" stop-color="#D7F3F0"/>
<stop offset="0.896178" stop-color="#E6F9F7"/>
<stop offset="0.92405" stop-color="#EDFCFA"/>
<stop offset="0.937987" stop-color="#F1FDFC"/>
<stop offset="0.951923" stop-color="#F4FFFE"/>
</linearGradient>
</defs>
</svg>
