<svg width="1280" height="280" viewBox="0 0 1280 280" fill="none" xmlns="http://www.w3.org/2000/svg">
<g clip-path="url(#clip0_5560_23065)">
<rect width="280" height="1311" transform="matrix(0 1 -1 0 1307 0)" fill="#051323"/>
<g filter="url(#filter0_f_5560_23065)">
<path d="M313.735 1398.86L1488.25 -133.853L1139.28 -625.202L313.735 1398.86Z" fill="url(#paint0_linear_5560_23065)"/>
</g>
<g style="mix-blend-mode:plus-lighter" opacity="0.4" filter="url(#filter1_f_5560_23065)">
<path d="M313.735 1398.86L1488.25 -133.853L1139.28 -625.202L313.735 1398.86Z" fill="url(#paint1_linear_5560_23065)"/>
</g>
<g filter="url(#filter2_f_5560_23065)">
<path d="M803.542 128.403L-36.9995 902.988L399.492 1067.48L803.542 128.403Z" fill="url(#paint2_linear_5560_23065)"/>
</g>
<g style="mix-blend-mode:plus-lighter" opacity="0.4" filter="url(#filter3_f_5560_23065)">
<path d="M803.542 128.403L-36.9995 902.988L399.492 1067.48L803.542 128.403Z" fill="url(#paint3_linear_5560_23065)"/>
</g>
<g filter="url(#filter4_f_5560_23065)">
<path d="M518.515 121.284L1359.06 -653.301L922.565 -817.795L518.515 121.284Z" fill="url(#paint4_linear_5560_23065)"/>
</g>
<g style="mix-blend-mode:plus-lighter" opacity="0.4" filter="url(#filter5_f_5560_23065)">
<path d="M518.515 121.284L1359.06 -653.301L922.565 -817.795L518.515 121.284Z" fill="url(#paint5_linear_5560_23065)"/>
</g>
<g filter="url(#filter6_f_5560_23065)">
<path d="M191.244 1398.98L2096.41 -133.924L1530.22 -625.217L191.244 1398.98Z" fill="url(#paint6_linear_5560_23065)"/>
</g>
<g style="mix-blend-mode:plus-lighter" opacity="0.4" filter="url(#filter7_f_5560_23065)">
<path d="M191.244 1398.98L2096.41 -133.924L1530.22 -625.217L191.244 1398.98Z" fill="url(#paint7_linear_5560_23065)"/>
</g>
<g filter="url(#filter8_f_5560_23065)">
<path d="M985.582 128.273L-378.001 902.858L330.105 1067.35L985.582 128.273Z" fill="url(#paint8_linear_5560_23065)"/>
</g>
<g style="mix-blend-mode:plus-lighter" opacity="0.4" filter="url(#filter9_f_5560_23065)">
<path d="M985.582 128.273L-378.001 902.858L330.105 1067.35L985.582 128.273Z" fill="url(#paint9_linear_5560_23065)"/>
</g>
<g filter="url(#filter10_f_5560_23065)">
<path d="M523.192 121.158L1886.78 -653.427L1178.67 -817.921L523.192 121.158Z" fill="url(#paint10_linear_5560_23065)"/>
</g>
<g style="mix-blend-mode:plus-lighter" opacity="0.4" filter="url(#filter11_f_5560_23065)">
<path d="M523.192 121.158L1886.78 -653.427L1178.67 -817.921L523.192 121.158Z" fill="url(#paint11_linear_5560_23065)"/>
</g>
<path d="M76.064 123.4H81.92L94.88 157H89.504L86.048 147.736H71.936L68.528 157H63.248L76.064 123.4ZM84.368 143.176L78.992 128.728L73.664 143.176H84.368ZM100.35 123.4H105.294V157H100.35V123.4ZM132.112 128.104H121.648V123.4H147.472V128.104H137.056V157H132.112V128.104ZM153.023 122.44H157.727V136.984C158.335 135.768 159.263 134.808 160.511 134.104C161.791 133.368 163.183 133 164.687 133C167.247 133 169.279 133.816 170.783 135.448C172.287 137.048 173.039 139.24 173.039 142.024V157H168.287V142.84C168.287 141.112 167.823 139.768 166.895 138.808C165.999 137.848 164.735 137.368 163.103 137.368C161.535 137.368 160.239 137.928 159.215 139.048C158.223 140.136 157.727 141.544 157.727 143.272V157H153.023V122.44ZM189.574 157.528C187.398 157.528 185.462 157.016 183.766 155.992C182.102 154.936 180.806 153.48 179.878 151.624C178.95 149.768 178.486 147.656 178.486 145.288C178.486 142.92 178.998 140.808 180.022 138.952C181.078 137.064 182.518 135.608 184.342 134.584C186.198 133.528 188.262 133 190.534 133C192.614 133 194.55 133.464 196.342 134.392C198.166 135.32 199.622 136.712 200.71 138.568C201.83 140.392 202.39 142.616 202.39 145.24V157H197.638V153.208C196.902 154.52 195.798 155.576 194.326 156.376C192.886 157.144 191.302 157.528 189.574 157.528ZM190.486 153.112C192.63 153.112 194.374 152.376 195.718 150.904C197.094 149.432 197.782 147.56 197.782 145.288C197.782 142.984 197.094 141.096 195.718 139.624C194.374 138.152 192.646 137.416 190.534 137.416C188.39 137.416 186.63 138.168 185.254 139.672C183.91 141.144 183.238 143.016 183.238 145.288C183.238 147.56 183.91 149.432 185.254 150.904C186.63 152.376 188.374 153.112 190.486 153.112ZM219.488 157.48C217.248 157.48 215.36 156.808 213.824 155.464C212.288 154.088 211.52 151.992 211.52 149.176V137.752H206.96V133.528H211.52V127.96L216.272 126.52V133.528H225.824V137.752H216.272V149.176C216.272 150.552 216.624 151.544 217.328 152.152C218.064 152.76 219.024 153.064 220.208 153.064C220.944 153.064 221.68 152.952 222.416 152.728C223.184 152.504 223.872 152.184 224.48 151.768L225.728 155.704C224.896 156.248 223.92 156.68 222.8 157C221.712 157.32 220.608 157.48 219.488 157.48ZM240.295 123.4H245.623L252.679 151L259.639 123.4H266.263L273.223 151L280.327 123.4H285.655L276.727 157H270.007L262.903 130.072L256.087 157H249.175L240.295 123.4ZM299.049 157.528C296.778 157.528 294.714 157 292.858 155.944C291.034 154.888 289.594 153.432 288.538 151.576C287.514 149.688 287.002 147.592 287.002 145.288C287.002 142.952 287.514 140.856 288.538 139C289.594 137.112 291.034 135.64 292.858 134.584C294.682 133.528 296.746 133 299.049 133C301.322 133 303.37 133.528 305.194 134.584C307.018 135.64 308.442 137.112 309.466 139C310.522 140.856 311.05 142.952 311.05 145.288C311.05 147.592 310.522 149.688 309.466 151.576C308.442 153.432 307.018 154.888 305.194 155.944C303.37 157 301.322 157.528 299.049 157.528ZM299.049 153.112C301.162 153.112 302.89 152.376 304.234 150.904C305.61 149.432 306.298 147.56 306.298 145.288C306.298 142.984 305.61 141.096 304.234 139.624C302.89 138.152 301.162 137.416 299.049 137.416C296.906 137.416 295.146 138.152 293.77 139.624C292.426 141.064 291.754 142.952 291.754 145.288C291.754 147.56 292.426 149.432 293.77 150.904C295.146 152.376 296.906 153.112 299.049 153.112ZM316.757 133.528H321.461V137.368C322.101 135.96 322.997 134.888 324.149 134.152C325.333 133.384 326.709 133 328.277 133C329.397 133 330.453 133.176 331.445 133.528L331.397 138.136C330.181 137.784 329.061 137.608 328.037 137.608C325.893 137.608 324.261 138.232 323.141 139.48C322.021 140.696 321.461 142.456 321.461 144.76V157H316.757V133.528ZM336.07 122.44H340.774V143.656L350.758 133.528H356.71L347.254 143.176L356.71 157H351.382L344.086 146.44L340.774 149.848V157H336.07V122.44ZM370.225 157.528C368.241 157.528 366.433 157.192 364.801 156.52C363.201 155.816 361.905 154.872 360.913 153.688C359.953 152.504 359.377 151.208 359.185 149.8H364.273C364.561 151.048 365.265 152.024 366.385 152.728C367.537 153.4 368.929 153.736 370.561 153.736C372.129 153.736 373.409 153.496 374.401 153.016C375.393 152.504 375.889 151.768 375.889 150.808C375.889 150.04 375.553 149.448 374.881 149.032C374.241 148.584 373.201 148.2 371.761 147.88L367.201 146.824C362.529 145.8 360.193 143.592 360.193 140.2C360.193 138.056 361.105 136.328 362.929 135.016C364.785 133.672 367.281 133 370.417 133C373.137 133 375.425 133.544 377.281 134.632C379.169 135.688 380.321 137.336 380.737 139.576H375.601C375.345 138.712 374.721 138.04 373.729 137.56C372.737 137.048 371.521 136.792 370.081 136.792C368.673 136.792 367.505 137.08 366.577 137.656C365.649 138.2 365.185 138.952 365.185 139.912C365.185 141.384 366.433 142.376 368.929 142.888L372.433 143.608C378.065 144.728 380.881 146.952 380.881 150.28C380.881 152.488 379.921 154.248 378.001 155.56C376.113 156.872 373.521 157.528 370.225 157.528ZM400.861 128.584C399.965 128.584 399.197 128.28 398.557 127.672C397.949 127.064 397.645 126.312 397.645 125.416C397.645 124.52 397.949 123.768 398.557 123.16C399.197 122.552 399.965 122.248 400.861 122.248C401.757 122.248 402.509 122.552 403.117 123.16C403.725 123.768 404.029 124.52 404.029 125.416C404.029 126.312 403.725 127.064 403.117 127.672C402.509 128.28 401.757 128.584 400.861 128.584ZM398.509 157V133.528H403.213V157H398.509ZM410.461 133.528H415.165V136.984C415.773 135.768 416.701 134.808 417.949 134.104C419.229 133.368 420.621 133 422.125 133C424.685 133 426.717 133.816 428.221 135.448C429.725 137.048 430.477 139.24 430.477 142.024V157H425.725V142.84C425.725 141.112 425.261 139.768 424.333 138.808C423.437 137.848 422.173 137.368 420.541 137.368C418.973 137.368 417.677 137.928 416.653 139.048C415.661 140.136 415.165 141.544 415.165 143.272V157H410.461V133.528ZM458.926 157.48C456.686 157.48 454.798 156.808 453.262 155.464C451.726 154.088 450.958 151.992 450.958 149.176V137.752H446.398V133.528H450.958V127.96L455.71 126.52V133.528H465.262V137.752H455.71V149.176C455.71 150.552 456.062 151.544 456.766 152.152C457.502 152.76 458.462 153.064 459.646 153.064C460.382 153.064 461.118 152.952 461.854 152.728C462.622 152.504 463.31 152.184 463.918 151.768L465.166 155.704C464.334 156.248 463.358 156.68 462.238 157C461.15 157.32 460.046 157.48 458.926 157.48ZM470.554 122.44H475.258V136.984C475.866 135.768 476.794 134.808 478.042 134.104C479.322 133.368 480.714 133 482.218 133C484.778 133 486.81 133.816 488.314 135.448C489.818 137.048 490.57 139.24 490.57 142.024V157H485.818V142.84C485.818 141.112 485.354 139.768 484.426 138.808C483.53 137.848 482.266 137.368 480.634 137.368C479.066 137.368 477.77 137.928 476.746 139.048C475.754 140.136 475.258 141.544 475.258 143.272V157H470.554V122.44ZM507.873 157.528C505.601 157.528 503.553 157 501.729 155.944C499.937 154.888 498.529 153.432 497.505 151.576C496.513 149.72 496.017 147.624 496.017 145.288C496.017 142.952 496.529 140.856 497.553 139C498.577 137.112 499.969 135.64 501.729 134.584C503.521 133.528 505.537 133 507.777 133C509.985 133 511.921 133.496 513.585 134.488C515.249 135.448 516.529 136.824 517.425 138.616C518.321 140.408 518.769 142.488 518.769 144.856C518.769 145.528 518.737 146.152 518.673 146.728H500.721C500.977 148.808 501.745 150.456 503.025 151.672C504.305 152.856 505.921 153.448 507.873 153.448C509.409 153.448 510.721 153.064 511.809 152.296C512.929 151.528 513.713 150.44 514.161 149.032H518.529C518.049 151.784 516.817 153.896 514.833 155.368C512.881 156.808 510.561 157.528 507.873 157.528ZM514.257 143.272C514.097 141.384 513.425 139.88 512.241 138.76C511.089 137.608 509.601 137.032 507.777 137.032C505.985 137.032 504.465 137.608 503.217 138.76C501.969 139.912 501.169 141.416 500.817 143.272H514.257ZM537.131 123.4H549.179C551.387 123.4 553.339 123.816 555.035 124.648C556.731 125.48 558.043 126.648 558.971 128.152C559.899 129.656 560.363 131.4 560.363 133.384C560.363 135.816 559.691 137.864 558.347 139.528C557.003 141.192 555.131 142.312 552.731 142.888L560.363 157H554.939L547.835 143.32H542.075V157H537.131V123.4ZM549.179 138.904C551.067 138.904 552.555 138.408 553.643 137.416C554.763 136.424 555.323 135.08 555.323 133.384C555.323 131.688 554.763 130.36 553.643 129.4C552.555 128.408 551.067 127.912 549.179 127.912H542.075V138.904H549.179ZM575.748 157.528C573.476 157.528 571.428 157 569.604 155.944C567.812 154.888 566.404 153.432 565.38 151.576C564.388 149.72 563.892 147.624 563.892 145.288C563.892 142.952 564.404 140.856 565.428 139C566.452 137.112 567.844 135.64 569.604 134.584C571.396 133.528 573.412 133 575.652 133C577.86 133 579.796 133.496 581.46 134.488C583.124 135.448 584.404 136.824 585.3 138.616C586.196 140.408 586.644 142.488 586.644 144.856C586.644 145.528 586.612 146.152 586.548 146.728H568.596C568.852 148.808 569.62 150.456 570.9 151.672C572.18 152.856 573.796 153.448 575.748 153.448C577.284 153.448 578.596 153.064 579.684 152.296C580.804 151.528 581.588 150.44 582.036 149.032H586.404C585.924 151.784 584.692 153.896 582.708 155.368C580.756 156.808 578.436 157.528 575.748 157.528ZM582.132 143.272C581.972 141.384 581.3 139.88 580.116 138.76C578.964 137.608 577.476 137.032 575.652 137.032C573.86 137.032 572.34 137.608 571.092 138.76C569.844 139.912 569.044 141.416 568.692 143.272H582.132ZM601.84 157.528C599.664 157.528 597.728 157.016 596.032 155.992C594.368 154.936 593.072 153.48 592.144 151.624C591.216 149.768 590.752 147.656 590.752 145.288C590.752 142.92 591.264 140.808 592.288 138.952C593.344 137.064 594.784 135.608 596.608 134.584C598.464 133.528 600.528 133 602.799 133C604.88 133 606.816 133.464 608.608 134.392C610.432 135.32 611.888 136.712 612.976 138.568C614.096 140.392 614.656 142.616 614.656 145.24V157H609.904V153.208C609.168 154.52 608.064 155.576 606.592 156.376C605.152 157.144 603.568 157.528 601.84 157.528ZM602.752 153.112C604.896 153.112 606.64 152.376 607.984 150.904C609.36 149.432 610.048 147.56 610.048 145.288C610.048 142.984 609.36 141.096 607.984 139.624C606.64 138.152 604.912 137.416 602.799 137.416C600.656 137.416 598.896 138.168 597.52 139.672C596.176 141.144 595.504 143.016 595.504 145.288C595.504 147.56 596.176 149.432 597.52 150.904C598.896 152.376 600.64 153.112 602.752 153.112ZM621.914 122.44H626.618V157H621.914V122.44ZM643.092 123.4H648.42L655.476 151L662.436 123.4H669.06L676.02 151L683.124 123.4H688.452L679.524 157H672.804L665.7 130.072L658.884 157H651.972L643.092 123.4ZM701.846 157.528C699.574 157.528 697.51 157 695.654 155.944C693.83 154.888 692.39 153.432 691.334 151.576C690.31 149.688 689.798 147.592 689.798 145.288C689.798 142.952 690.31 140.856 691.334 139C692.39 137.112 693.83 135.64 695.654 134.584C697.478 133.528 699.542 133 701.846 133C704.118 133 706.166 133.528 707.99 134.584C709.814 135.64 711.238 137.112 712.262 139C713.318 140.856 713.846 142.952 713.846 145.288C713.846 147.592 713.318 149.688 712.262 151.576C711.238 153.432 709.814 154.888 707.99 155.944C706.166 157 704.118 157.528 701.846 157.528ZM701.846 153.112C703.958 153.112 705.686 152.376 707.03 150.904C708.406 149.432 709.094 147.56 709.094 145.288C709.094 142.984 708.406 141.096 707.03 139.624C705.686 138.152 703.958 137.416 701.846 137.416C699.702 137.416 697.942 138.152 696.566 139.624C695.222 141.064 694.55 142.952 694.55 145.288C694.55 147.56 695.222 149.432 696.566 150.904C697.942 152.376 699.702 153.112 701.846 153.112ZM719.554 133.528H724.258V137.368C724.898 135.96 725.794 134.888 726.946 134.152C728.13 133.384 729.506 133 731.074 133C732.194 133 733.25 133.176 734.242 133.528L734.194 138.136C732.978 137.784 731.858 137.608 730.834 137.608C728.69 137.608 727.058 138.232 725.938 139.48C724.818 140.696 724.258 142.456 724.258 144.76V157H719.554V133.528ZM738.867 122.44H743.571V157H738.867V122.44ZM760.371 157.528C758.195 157.528 756.259 157.016 754.563 155.992C752.899 154.936 751.587 153.48 750.627 151.624C749.699 149.768 749.235 147.656 749.235 145.288C749.235 142.92 749.699 140.808 750.627 138.952C751.587 137.064 752.915 135.608 754.611 134.584C756.307 133.528 758.227 133 760.371 133C762.099 133 763.699 133.384 765.171 134.152C766.643 134.92 767.731 135.928 768.435 137.176V122.44H773.139V157H768.435V153.16C767.699 154.472 766.595 155.528 765.123 156.328C763.683 157.128 762.099 157.528 760.371 157.528ZM761.283 153.112C762.659 153.112 763.907 152.776 765.027 152.104C766.147 151.432 767.011 150.504 767.619 149.32C768.259 148.136 768.579 146.792 768.579 145.288C768.579 142.984 767.891 141.096 766.515 139.624C765.171 138.152 763.427 137.416 761.283 137.416C759.171 137.416 757.427 138.152 756.051 139.624C754.707 141.096 754.035 142.984 754.035 145.288C754.035 147.56 754.707 149.432 756.051 150.904C757.427 152.376 759.171 153.112 761.283 153.112Z" fill="#F4FFFE"/>
</g>
<defs>
<filter id="filter0_f_5560_23065" x="84.5767" y="-854.36" width="1632.83" height="2482.38" filterUnits="userSpaceOnUse" color-interpolation-filters="sRGB">
<feFlood flood-opacity="0" result="BackgroundImageFix"/>
<feBlend mode="normal" in="SourceGraphic" in2="BackgroundImageFix" result="shape"/>
<feGaussianBlur stdDeviation="114.579" result="effect1_foregroundBlur_5560_23065"/>
</filter>
<filter id="filter1_f_5560_23065" x="84.5767" y="-854.36" width="1632.83" height="2482.38" filterUnits="userSpaceOnUse" color-interpolation-filters="sRGB">
<feFlood flood-opacity="0" result="BackgroundImageFix"/>
<feBlend mode="normal" in="SourceGraphic" in2="BackgroundImageFix" result="shape"/>
<feGaussianBlur stdDeviation="114.579" result="effect1_foregroundBlur_5560_23065"/>
</filter>
<filter id="filter2_f_5560_23065" x="-266.158" y="-100.755" width="1298.86" height="1397.4" filterUnits="userSpaceOnUse" color-interpolation-filters="sRGB">
<feFlood flood-opacity="0" result="BackgroundImageFix"/>
<feBlend mode="normal" in="SourceGraphic" in2="BackgroundImageFix" result="shape"/>
<feGaussianBlur stdDeviation="114.579" result="effect1_foregroundBlur_5560_23065"/>
</filter>
<filter id="filter3_f_5560_23065" x="-266.158" y="-100.755" width="1298.86" height="1397.4" filterUnits="userSpaceOnUse" color-interpolation-filters="sRGB">
<feFlood flood-opacity="0" result="BackgroundImageFix"/>
<feBlend mode="normal" in="SourceGraphic" in2="BackgroundImageFix" result="shape"/>
<feGaussianBlur stdDeviation="114.579" result="effect1_foregroundBlur_5560_23065"/>
</filter>
<filter id="filter4_f_5560_23065" x="289.357" y="-1046.95" width="1298.86" height="1397.4" filterUnits="userSpaceOnUse" color-interpolation-filters="sRGB">
<feFlood flood-opacity="0" result="BackgroundImageFix"/>
<feBlend mode="normal" in="SourceGraphic" in2="BackgroundImageFix" result="shape"/>
<feGaussianBlur stdDeviation="114.579" result="effect1_foregroundBlur_5560_23065"/>
</filter>
<filter id="filter5_f_5560_23065" x="289.357" y="-1046.95" width="1298.86" height="1397.4" filterUnits="userSpaceOnUse" color-interpolation-filters="sRGB">
<feFlood flood-opacity="0" result="BackgroundImageFix"/>
<feBlend mode="normal" in="SourceGraphic" in2="BackgroundImageFix" result="shape"/>
<feGaussianBlur stdDeviation="114.579" result="effect1_foregroundBlur_5560_23065"/>
</filter>
<filter id="filter6_f_5560_23065" x="-37.914" y="-854.375" width="2363.49" height="2482.52" filterUnits="userSpaceOnUse" color-interpolation-filters="sRGB">
<feFlood flood-opacity="0" result="BackgroundImageFix"/>
<feBlend mode="normal" in="SourceGraphic" in2="BackgroundImageFix" result="shape"/>
<feGaussianBlur stdDeviation="114.579" result="effect1_foregroundBlur_5560_23065"/>
</filter>
<filter id="filter7_f_5560_23065" x="-37.914" y="-854.375" width="2363.49" height="2482.52" filterUnits="userSpaceOnUse" color-interpolation-filters="sRGB">
<feFlood flood-opacity="0" result="BackgroundImageFix"/>
<feBlend mode="normal" in="SourceGraphic" in2="BackgroundImageFix" result="shape"/>
<feGaussianBlur stdDeviation="114.579" result="effect1_foregroundBlur_5560_23065"/>
</filter>
<filter id="filter8_f_5560_23065" x="-607.159" y="-100.885" width="1821.9" height="1397.4" filterUnits="userSpaceOnUse" color-interpolation-filters="sRGB">
<feFlood flood-opacity="0" result="BackgroundImageFix"/>
<feBlend mode="normal" in="SourceGraphic" in2="BackgroundImageFix" result="shape"/>
<feGaussianBlur stdDeviation="114.579" result="effect1_foregroundBlur_5560_23065"/>
</filter>
<filter id="filter9_f_5560_23065" x="-607.159" y="-100.885" width="1821.9" height="1397.4" filterUnits="userSpaceOnUse" color-interpolation-filters="sRGB">
<feFlood flood-opacity="0" result="BackgroundImageFix"/>
<feBlend mode="normal" in="SourceGraphic" in2="BackgroundImageFix" result="shape"/>
<feGaussianBlur stdDeviation="114.579" result="effect1_foregroundBlur_5560_23065"/>
</filter>
<filter id="filter10_f_5560_23065" x="294.034" y="-1047.08" width="1821.9" height="1397.4" filterUnits="userSpaceOnUse" color-interpolation-filters="sRGB">
<feFlood flood-opacity="0" result="BackgroundImageFix"/>
<feBlend mode="normal" in="SourceGraphic" in2="BackgroundImageFix" result="shape"/>
<feGaussianBlur stdDeviation="114.579" result="effect1_foregroundBlur_5560_23065"/>
</filter>
<filter id="filter11_f_5560_23065" x="294.034" y="-1047.08" width="1821.9" height="1397.4" filterUnits="userSpaceOnUse" color-interpolation-filters="sRGB">
<feFlood flood-opacity="0" result="BackgroundImageFix"/>
<feBlend mode="normal" in="SourceGraphic" in2="BackgroundImageFix" result="shape"/>
<feGaussianBlur stdDeviation="114.579" result="effect1_foregroundBlur_5560_23065"/>
</filter>
<linearGradient id="paint0_linear_5560_23065" x1="627.288" y1="869.465" x2="1260.15" y2="1019.43" gradientUnits="userSpaceOnUse">
<stop stop-color="#5E3FD3"/>
<stop offset="1" stop-opacity="0"/>
</linearGradient>
<linearGradient id="paint1_linear_5560_23065" x1="627.288" y1="869.465" x2="1260.15" y2="1019.43" gradientUnits="userSpaceOnUse">
<stop stop-color="#5E3FD3"/>
<stop offset="1" stop-opacity="0"/>
</linearGradient>
<linearGradient id="paint2_linear_5560_23065" x1="602.861" y1="385.3" x2="-38.1315" y2="337.208" gradientUnits="userSpaceOnUse">
<stop stop-color="#5E3FD3"/>
<stop offset="1" stop-opacity="0"/>
</linearGradient>
<linearGradient id="paint3_linear_5560_23065" x1="602.861" y1="385.3" x2="-38.1315" y2="337.208" gradientUnits="userSpaceOnUse">
<stop stop-color="#5E3FD3"/>
<stop offset="1" stop-opacity="0"/>
</linearGradient>
<linearGradient id="paint4_linear_5560_23065" x1="719.196" y1="-135.613" x2="1360.19" y2="-87.5215" gradientUnits="userSpaceOnUse">
<stop stop-color="#5E3FD3"/>
<stop offset="1" stop-opacity="0"/>
</linearGradient>
<linearGradient id="paint5_linear_5560_23065" x1="719.196" y1="-135.613" x2="1360.19" y2="-87.5215" gradientUnits="userSpaceOnUse">
<stop stop-color="#5E3FD3"/>
<stop offset="1" stop-opacity="0"/>
</linearGradient>
<linearGradient id="paint6_linear_5560_23065" x1="699.839" y1="869.535" x2="1644.62" y2="1232.58" gradientUnits="userSpaceOnUse">
<stop stop-color="#0B9E8C"/>
<stop offset="1" stop-opacity="0"/>
</linearGradient>
<linearGradient id="paint7_linear_5560_23065" x1="699.839" y1="869.535" x2="1644.62" y2="1232.58" gradientUnits="userSpaceOnUse">
<stop stop-color="#0B9E8C"/>
<stop offset="1" stop-opacity="0"/>
</linearGradient>
<linearGradient id="paint8_linear_5560_23065" x1="660.024" y1="385.17" x2="-370.426" y2="259.751" gradientUnits="userSpaceOnUse">
<stop stop-color="#0B9E8C"/>
<stop offset="1" stop-opacity="0"/>
</linearGradient>
<linearGradient id="paint9_linear_5560_23065" x1="660.024" y1="385.17" x2="-370.426" y2="259.751" gradientUnits="userSpaceOnUse">
<stop stop-color="#0B9E8C"/>
<stop offset="1" stop-opacity="0"/>
</linearGradient>
<linearGradient id="paint10_linear_5560_23065" x1="848.75" y1="-135.739" x2="1879.2" y2="-10.3192" gradientUnits="userSpaceOnUse">
<stop stop-color="#0B9E8C"/>
<stop offset="1" stop-opacity="0"/>
</linearGradient>
<linearGradient id="paint11_linear_5560_23065" x1="848.75" y1="-135.739" x2="1879.2" y2="-10.3192" gradientUnits="userSpaceOnUse">
<stop stop-color="#0B9E8C"/>
<stop offset="1" stop-opacity="0"/>
</linearGradient>
<clipPath id="clip0_5560_23065">
<rect width="280" height="1311" fill="white" transform="matrix(0 1 -1 0 1307 0)"/>
</clipPath>
</defs>
</svg>
