<svg width="1280" height="280" viewBox="0 0 1280 280" fill="none" xmlns="http://www.w3.org/2000/svg">
<g clip-path="url(#clip0_5560_23037)">
<rect width="280" height="1311" transform="matrix(0 -1 1 0 -4 280)" fill="#051323"/>
<g filter="url(#filter0_f_5560_23037)">
<path d="M735.866 82.4274C1112.91 -313.475 31.8217 -417.949 -555.852 -420.698C-325.049 -540.294 339.041 -809.178 1148.98 -927.949C2161.41 -1076.41 1841.39 -206.251 1713.38 470.082C1610.98 1011.15 157.89 970.459 -555.852 882.48C-282.38 780.755 358.824 478.33 735.866 82.4274Z" fill="url(#paint0_linear_5560_23037)"/>
</g>
<g filter="url(#filter1_f_5560_23037)">
<path d="M948.269 370.598C1264.99 35.3277 821.806 -293.766 632.995 -505.203C936.383 -425.572 1546.97 -263.797 1562.24 -253.743C1581.31 -241.177 1893.4 209.002 1885.12 224.277C1878.5 236.497 1429.68 547.492 1206.1 701.462C939.941 790.069 631.542 705.868 948.269 370.598Z" fill="url(#paint1_linear_5560_23037)"/>
</g>
<path d="M65.272 123.4H76.456C79.784 123.4 82.712 124.104 85.24 125.512C87.8 126.888 89.768 128.84 91.144 131.368C92.52 133.864 93.208 136.776 93.208 140.104C93.208 143.464 92.504 146.424 91.096 148.984C89.72 151.544 87.768 153.528 85.24 154.936C82.712 156.312 79.784 157 76.456 157H65.272V123.4ZM76.456 152.296C78.792 152.296 80.824 151.8 82.552 150.808C84.312 149.784 85.672 148.36 86.632 146.536C87.592 144.68 88.072 142.536 88.072 140.104C88.072 137.704 87.592 135.608 86.632 133.816C85.672 131.992 84.312 130.584 82.552 129.592C80.824 128.6 78.792 128.104 76.456 128.104H70.216V152.296H76.456ZM108.465 157.528C106.289 157.528 104.353 157.016 102.657 155.992C100.993 154.936 99.6965 153.48 98.7685 151.624C97.8405 149.768 97.3765 147.656 97.3765 145.288C97.3765 142.92 97.8885 140.808 98.9125 138.952C99.9685 137.064 101.409 135.608 103.233 134.584C105.089 133.528 107.153 133 109.424 133C111.505 133 113.441 133.464 115.233 134.392C117.057 135.32 118.513 136.712 119.601 138.568C120.721 140.392 121.281 142.616 121.281 145.24V157H116.529V153.208C115.793 154.52 114.689 155.576 113.217 156.376C111.777 157.144 110.193 157.528 108.465 157.528ZM109.377 153.112C111.521 153.112 113.265 152.376 114.609 150.904C115.985 149.432 116.673 147.56 116.673 145.288C116.673 142.984 115.985 141.096 114.609 139.624C113.265 138.152 111.537 137.416 109.424 137.416C107.281 137.416 105.521 138.168 104.145 139.672C102.801 141.144 102.129 143.016 102.129 145.288C102.129 147.56 102.801 149.432 104.145 150.904C105.521 152.376 107.265 153.112 109.377 153.112ZM138.379 157.48C136.139 157.48 134.251 156.808 132.715 155.464C131.179 154.088 130.411 151.992 130.411 149.176V137.752H125.851V133.528H130.411V127.96L135.163 126.52V133.528H144.715V137.752H135.163V149.176C135.163 150.552 135.515 151.544 136.219 152.152C136.955 152.76 137.915 153.064 139.099 153.064C139.835 153.064 140.571 152.952 141.307 152.728C142.075 152.504 142.763 152.184 143.371 151.768L144.619 155.704C143.787 156.248 142.811 156.68 141.691 157C140.603 157.32 139.499 157.48 138.379 157.48ZM158.808 157.528C156.632 157.528 154.696 157.016 153 155.992C151.336 154.936 150.04 153.48 149.112 151.624C148.184 149.768 147.72 147.656 147.72 145.288C147.72 142.92 148.232 140.808 149.256 138.952C150.312 137.064 151.752 135.608 153.576 134.584C155.432 133.528 157.496 133 159.768 133C161.848 133 163.784 133.464 165.576 134.392C167.4 135.32 168.856 136.712 169.944 138.568C171.064 140.392 171.624 142.616 171.624 145.24V157H166.872V153.208C166.136 154.52 165.032 155.576 163.56 156.376C162.12 157.144 160.536 157.528 158.808 157.528ZM159.72 153.112C161.864 153.112 163.608 152.376 164.952 150.904C166.328 149.432 167.016 147.56 167.016 145.288C167.016 142.984 166.328 141.096 164.952 139.624C163.608 138.152 161.88 137.416 159.768 137.416C157.624 137.416 155.864 138.168 154.488 139.672C153.144 141.144 152.472 143.016 152.472 145.288C152.472 147.56 153.144 149.432 154.488 150.904C155.864 152.376 157.608 153.112 159.72 153.112ZM191.553 123.4H196.497V157H191.553V123.4ZM204.429 133.528H209.133V136.984C209.741 135.768 210.669 134.808 211.917 134.104C213.197 133.368 214.589 133 216.093 133C218.653 133 220.685 133.816 222.189 135.448C223.693 137.048 224.445 139.24 224.445 142.024V157H219.693V142.84C219.693 141.112 219.229 139.768 218.301 138.808C217.405 137.848 216.141 137.368 214.509 137.368C212.941 137.368 211.645 137.928 210.621 139.048C209.629 140.136 209.133 141.544 209.133 143.272V157H204.429V133.528ZM241.316 157.48C239.076 157.48 237.188 156.808 235.652 155.464C234.116 154.088 233.348 151.992 233.348 149.176V137.752H228.788V133.528H233.348V127.96L238.1 126.52V133.528H247.652V137.752H238.1V149.176C238.1 150.552 238.452 151.544 239.156 152.152C239.892 152.76 240.852 153.064 242.036 153.064C242.772 153.064 243.508 152.952 244.244 152.728C245.012 152.504 245.7 152.184 246.308 151.768L247.556 155.704C246.724 156.248 245.748 156.68 244.628 157C243.54 157.32 242.436 157.48 241.316 157.48ZM262.514 157.528C260.242 157.528 258.194 157 256.37 155.944C254.578 154.888 253.17 153.432 252.146 151.576C251.154 149.72 250.658 147.624 250.658 145.288C250.658 142.952 251.17 140.856 252.194 139C253.218 137.112 254.61 135.64 256.37 134.584C258.162 133.528 260.178 133 262.418 133C264.626 133 266.562 133.496 268.226 134.488C269.89 135.448 271.17 136.824 272.066 138.616C272.962 140.408 273.41 142.488 273.41 144.856C273.41 145.528 273.378 146.152 273.314 146.728H255.362C255.618 148.808 256.386 150.456 257.666 151.672C258.946 152.856 260.562 153.448 262.514 153.448C264.05 153.448 265.362 153.064 266.45 152.296C267.57 151.528 268.354 150.44 268.802 149.032H273.17C272.69 151.784 271.458 153.896 269.474 155.368C267.522 156.808 265.202 157.528 262.514 157.528ZM268.898 143.272C268.738 141.384 268.066 139.88 266.882 138.76C265.73 137.608 264.242 137.032 262.418 137.032C260.626 137.032 259.106 137.608 257.858 138.76C256.61 139.912 255.81 141.416 255.458 143.272H268.898ZM279.101 122.44H283.805V157H279.101V122.44ZM291.101 122.44H295.805V157H291.101V122.44ZM305.501 128.584C304.605 128.584 303.837 128.28 303.197 127.672C302.589 127.064 302.285 126.312 302.285 125.416C302.285 124.52 302.589 123.768 303.197 123.16C303.837 122.552 304.605 122.248 305.501 122.248C306.397 122.248 307.149 122.552 307.757 123.16C308.365 123.768 308.669 124.52 308.669 125.416C308.669 126.312 308.365 127.064 307.757 127.672C307.149 128.28 306.397 128.584 305.501 128.584ZM303.149 157V133.528H307.853V157H303.149ZM314.141 167.128V162.856H325.421C327.789 162.856 329.581 162.2 330.797 160.888C332.045 159.608 332.669 157.72 332.669 155.224V152.248C331.933 153.528 330.829 154.536 329.357 155.272C327.917 156.008 326.333 156.376 324.605 156.376C322.429 156.376 320.493 155.88 318.797 154.888C317.133 153.896 315.837 152.52 314.909 150.76C313.981 148.968 313.517 146.952 313.517 144.712C313.517 142.472 314.029 140.456 315.053 138.664C316.109 136.872 317.549 135.48 319.373 134.488C321.229 133.496 323.293 133 325.565 133C327.645 133 329.581 133.448 331.373 134.344C333.197 135.208 334.653 136.52 335.741 138.28C336.861 140.04 337.421 142.168 337.421 144.664V155.224C337.421 159.064 336.381 162.008 334.301 164.056C332.221 166.104 329.229 167.128 325.325 167.128H314.141ZM325.517 152.2C327.661 152.2 329.405 151.496 330.749 150.088C332.125 148.68 332.813 146.888 332.813 144.712C332.813 142.504 332.125 140.696 330.749 139.288C329.405 137.88 327.677 137.176 325.565 137.176C323.421 137.176 321.661 137.896 320.285 139.336C318.941 140.744 318.269 142.536 318.269 144.712C318.269 146.888 318.941 148.68 320.285 150.088C321.661 151.496 323.405 152.2 325.517 152.2ZM354.951 157.528C352.679 157.528 350.631 157 348.807 155.944C347.015 154.888 345.607 153.432 344.583 151.576C343.591 149.72 343.095 147.624 343.095 145.288C343.095 142.952 343.607 140.856 344.631 139C345.655 137.112 347.047 135.64 348.807 134.584C350.599 133.528 352.615 133 354.855 133C357.063 133 358.999 133.496 360.663 134.488C362.327 135.448 363.607 136.824 364.503 138.616C365.399 140.408 365.847 142.488 365.847 144.856C365.847 145.528 365.815 146.152 365.751 146.728H347.799C348.055 148.808 348.823 150.456 350.103 151.672C351.383 152.856 352.999 153.448 354.951 153.448C356.487 153.448 357.799 153.064 358.887 152.296C360.007 151.528 360.791 150.44 361.239 149.032H365.607C365.127 151.784 363.895 153.896 361.911 155.368C359.959 156.808 357.639 157.528 354.951 157.528ZM361.335 143.272C361.175 141.384 360.503 139.88 359.319 138.76C358.167 137.608 356.679 137.032 354.855 137.032C353.063 137.032 351.543 137.608 350.295 138.76C349.047 139.912 348.247 141.416 347.895 143.272H361.335ZM371.539 133.528H376.243V136.984C376.851 135.768 377.779 134.808 379.027 134.104C380.307 133.368 381.699 133 383.203 133C385.763 133 387.795 133.816 389.299 135.448C390.803 137.048 391.555 139.24 391.555 142.024V157H386.803V142.84C386.803 141.112 386.339 139.768 385.411 138.808C384.515 137.848 383.251 137.368 381.619 137.368C380.051 137.368 378.755 137.928 377.731 139.048C376.739 140.136 376.243 141.544 376.243 143.272V157H371.539V133.528ZM408.858 157.528C406.586 157.528 404.538 157 402.714 155.944C400.922 154.888 399.514 153.432 398.49 151.576C397.498 149.72 397.002 147.624 397.002 145.288C397.002 142.952 397.514 140.856 398.538 139C399.562 137.112 400.97 135.64 402.762 134.584C404.554 133.528 406.586 133 408.858 133C411.578 133 413.898 133.784 415.818 135.352C417.77 136.888 419.002 139.144 419.514 142.12H415.194C414.778 140.648 413.994 139.496 412.842 138.664C411.722 137.832 410.394 137.416 408.858 137.416C406.778 137.416 405.066 138.152 403.722 139.624C402.41 141.096 401.754 142.984 401.754 145.288C401.754 147.592 402.41 149.48 403.722 150.952C405.066 152.392 406.778 153.112 408.858 153.112C410.394 153.112 411.754 152.696 412.938 151.864C414.154 151 414.97 149.88 415.386 148.504H419.658C419.114 151.384 417.834 153.608 415.818 155.176C413.834 156.744 411.514 157.528 408.858 157.528ZM435.342 157.528C433.07 157.528 431.022 157 429.198 155.944C427.406 154.888 425.998 153.432 424.974 151.576C423.982 149.72 423.486 147.624 423.486 145.288C423.486 142.952 423.998 140.856 425.022 139C426.046 137.112 427.438 135.64 429.198 134.584C430.99 133.528 433.006 133 435.246 133C437.454 133 439.39 133.496 441.054 134.488C442.718 135.448 443.998 136.824 444.894 138.616C445.79 140.408 446.238 142.488 446.238 144.856C446.238 145.528 446.206 146.152 446.142 146.728H428.19C428.446 148.808 429.214 150.456 430.494 151.672C431.774 152.856 433.39 153.448 435.342 153.448C436.878 153.448 438.19 153.064 439.278 152.296C440.398 151.528 441.182 150.44 441.63 149.032H445.998C445.518 151.784 444.286 153.896 442.302 155.368C440.35 156.808 438.03 157.528 435.342 157.528ZM441.726 143.272C441.566 141.384 440.894 139.88 439.71 138.76C438.558 137.608 437.07 137.032 435.246 137.032C433.454 137.032 431.934 137.608 430.686 138.76C429.438 139.912 428.638 141.416 428.286 143.272H441.726ZM475.304 157.576C473 157.576 470.92 157.112 469.064 156.184C467.24 155.256 465.752 154.008 464.6 152.44C463.448 150.84 462.744 149.08 462.488 147.16H467.816C468.2 148.984 469.112 150.392 470.552 151.384C471.992 152.344 473.72 152.824 475.736 152.824C477.688 152.824 479.304 152.424 480.584 151.624C481.864 150.824 482.504 149.688 482.504 148.216C482.504 147 482.072 146.056 481.208 145.384C480.344 144.68 479.016 144.104 477.224 143.656L471.752 142.12C466.344 140.68 463.64 137.608 463.64 132.904C463.64 130.92 464.104 129.176 465.032 127.672C465.992 126.168 467.368 125 469.16 124.168C470.952 123.304 473.064 122.872 475.496 122.872C478.536 122.872 481.144 123.64 483.32 125.176C485.528 126.712 486.904 128.888 487.448 131.704H482.12C481.736 130.392 480.92 129.4 479.672 128.728C478.424 128.024 476.904 127.672 475.112 127.672C473.32 127.672 471.816 128.104 470.6 128.968C469.416 129.832 468.824 131.016 468.824 132.52C468.824 134.792 470.424 136.344 473.624 137.176L477.896 138.184C481 138.92 483.4 140.056 485.096 141.592C486.824 143.128 487.688 145.096 487.688 147.496C487.688 149.512 487.192 151.288 486.2 152.824C485.208 154.328 483.768 155.496 481.88 156.328C480.024 157.16 477.832 157.576 475.304 157.576ZM503.924 157.528C501.653 157.528 499.589 157 497.733 155.944C495.909 154.888 494.469 153.432 493.413 151.576C492.389 149.688 491.877 147.592 491.877 145.288C491.877 142.952 492.389 140.856 493.413 139C494.469 137.112 495.909 135.64 497.733 134.584C499.557 133.528 501.621 133 503.924 133C506.197 133 508.245 133.528 510.069 134.584C511.893 135.64 513.317 137.112 514.341 139C515.397 140.856 515.925 142.952 515.925 145.288C515.925 147.592 515.397 149.688 514.341 151.576C513.317 153.432 511.893 154.888 510.069 155.944C508.245 157 506.197 157.528 503.924 157.528ZM503.924 153.112C506.037 153.112 507.765 152.376 509.109 150.904C510.485 149.432 511.173 147.56 511.173 145.288C511.173 142.984 510.485 141.096 509.109 139.624C507.765 138.152 506.037 137.416 503.924 137.416C501.781 137.416 500.021 138.152 498.645 139.624C497.301 141.064 496.629 142.952 496.629 145.288C496.629 147.56 497.301 149.432 498.645 150.904C500.021 152.376 501.781 153.112 503.924 153.112ZM521.632 122.44H526.336V157H521.632V122.44ZM543.472 157.528C540.368 157.528 537.92 156.632 536.128 154.84C534.336 153.048 533.44 150.616 533.44 147.544V133.528H538.096V147.544C538.096 149.304 538.56 150.648 539.488 151.576C540.416 152.472 541.744 152.92 543.472 152.92C545.168 152.92 546.464 152.472 547.36 151.576C548.288 150.648 548.752 149.304 548.752 147.544V133.528H553.456V147.544C553.456 150.616 552.544 153.048 550.72 154.84C548.928 156.632 546.512 157.528 543.472 157.528ZM570.519 157.48C568.279 157.48 566.391 156.808 564.855 155.464C563.319 154.088 562.551 151.992 562.551 149.176V137.752H557.991V133.528H562.551V127.96L567.303 126.52V133.528H576.855V137.752H567.303V149.176C567.303 150.552 567.655 151.544 568.359 152.152C569.095 152.76 570.055 153.064 571.239 153.064C571.975 153.064 572.711 152.952 573.447 152.728C574.215 152.504 574.903 152.184 575.511 151.768L576.759 155.704C575.927 156.248 574.951 156.68 573.831 157C572.743 157.32 571.639 157.48 570.519 157.48ZM584.548 128.584C583.652 128.584 582.884 128.28 582.244 127.672C581.636 127.064 581.332 126.312 581.332 125.416C581.332 124.52 581.636 123.768 582.244 123.16C582.884 122.552 583.652 122.248 584.548 122.248C585.444 122.248 586.196 122.552 586.804 123.16C587.412 123.768 587.716 124.52 587.716 125.416C587.716 126.312 587.412 127.064 586.804 127.672C586.196 128.28 585.444 128.584 584.548 128.584ZM582.196 157V133.528H586.9V157H582.196ZM604.612 157.528C602.34 157.528 600.276 157 598.42 155.944C596.596 154.888 595.156 153.432 594.1 151.576C593.076 149.688 592.564 147.592 592.564 145.288C592.564 142.952 593.076 140.856 594.1 139C595.156 137.112 596.596 135.64 598.42 134.584C600.244 133.528 602.308 133 604.612 133C606.884 133 608.932 133.528 610.756 134.584C612.58 135.64 614.004 137.112 615.028 139C616.084 140.856 616.612 142.952 616.612 145.288C616.612 147.592 616.084 149.688 615.028 151.576C614.004 153.432 612.58 154.888 610.756 155.944C608.932 157 606.884 157.528 604.612 157.528ZM604.612 153.112C606.724 153.112 608.452 152.376 609.796 150.904C611.172 149.432 611.86 147.56 611.86 145.288C611.86 142.984 611.172 141.096 609.796 139.624C608.452 138.152 606.724 137.416 604.612 137.416C602.468 137.416 600.708 138.152 599.332 139.624C597.988 141.064 597.316 142.952 597.316 145.288C597.316 147.56 597.988 149.432 599.332 150.904C600.708 152.376 602.468 153.112 604.612 153.112ZM622.32 133.528H627.024V136.984C627.632 135.768 628.56 134.808 629.808 134.104C631.088 133.368 632.48 133 633.984 133C636.544 133 638.576 133.816 640.08 135.448C641.584 137.048 642.336 139.24 642.336 142.024V157H637.584V142.84C637.584 141.112 637.12 139.768 636.192 138.808C635.296 137.848 634.032 137.368 632.4 137.368C630.832 137.368 629.536 137.928 628.512 139.048C627.52 140.136 627.024 141.544 627.024 143.272V157H622.32V133.528ZM658.631 157.528C656.647 157.528 654.839 157.192 653.207 156.52C651.607 155.816 650.311 154.872 649.319 153.688C648.359 152.504 647.783 151.208 647.591 149.8H652.679C652.967 151.048 653.671 152.024 654.791 152.728C655.943 153.4 657.335 153.736 658.967 153.736C660.535 153.736 661.815 153.496 662.807 153.016C663.799 152.504 664.295 151.768 664.295 150.808C664.295 150.04 663.959 149.448 663.287 149.032C662.647 148.584 661.607 148.2 660.167 147.88L655.607 146.824C650.935 145.8 648.599 143.592 648.599 140.2C648.599 138.056 649.511 136.328 651.335 135.016C653.191 133.672 655.687 133 658.823 133C661.543 133 663.831 133.544 665.687 134.632C667.575 135.688 668.727 137.336 669.143 139.576H664.007C663.751 138.712 663.127 138.04 662.135 137.56C661.143 137.048 659.927 136.792 658.487 136.792C657.079 136.792 655.911 137.08 654.983 137.656C654.055 138.2 653.591 138.952 653.591 139.912C653.591 141.384 654.839 142.376 657.335 142.888L660.839 143.608C666.471 144.728 669.287 146.952 669.287 150.28C669.287 152.488 668.327 154.248 666.407 155.56C664.519 156.872 661.927 157.528 658.631 157.528Z" fill="#F4FFFE"/>
</g>
<defs>
<filter id="filter0_f_5560_23037" x="-855.852" y="-1244.68" width="3019.87" height="2479.61" filterUnits="userSpaceOnUse" color-interpolation-filters="sRGB">
<feFlood flood-opacity="0" result="BackgroundImageFix"/>
<feBlend mode="normal" in="SourceGraphic" in2="BackgroundImageFix" result="shape"/>
<feGaussianBlur stdDeviation="150" result="effect1_foregroundBlur_5560_23037"/>
</filter>
<filter id="filter1_f_5560_23037" x="332.995" y="-805.203" width="1852.29" height="1839.52" filterUnits="userSpaceOnUse" color-interpolation-filters="sRGB">
<feFlood flood-opacity="0" result="BackgroundImageFix"/>
<feBlend mode="normal" in="SourceGraphic" in2="BackgroundImageFix" result="shape"/>
<feGaussianBlur stdDeviation="150" result="effect1_foregroundBlur_5560_23037"/>
</filter>
<linearGradient id="paint0_linear_5560_23037" x1="654.084" y1="-239.243" x2="654.084" y2="465.958" gradientUnits="userSpaceOnUse">
<stop stop-color="#106CDD"/>
<stop offset="1" stop-color="#0B9E8C"/>
</linearGradient>
<linearGradient id="paint1_linear_5560_23037" x1="1050.22" y1="-177.717" x2="981.739" y2="467.543" gradientUnits="userSpaceOnUse">
<stop stop-color="#085951"/>
<stop offset="0.682692" stop-color="#0B9E8C"/>
</linearGradient>
<clipPath id="clip0_5560_23037">
<rect width="280" height="1311" fill="white" transform="matrix(0 -1 1 0 -4 280)"/>
</clipPath>
</defs>
</svg>
